G04 #@! TF.GenerationSoftware,KiCad,Pcbnew,8.0.2-8.0.2-0~ubuntu22.04.1*
G04 #@! TF.CreationDate,2024-05-09T21:57:20-07:00*
G04 #@! TF.ProjectId,pifire-relay-module,70696669-7265-42d7-9265-6c61792d6d6f,rev?*
G04 #@! TF.SameCoordinates,Original*
G04 #@! TF.FileFunction,Copper,L2,Bot*
G04 #@! TF.FilePolarity,Positive*
%FSLAX46Y46*%
G04 Gerber Fmt 4.6, Leading zero omitted, Abs format (unit mm)*
G04 Created by KiCad (PCBNEW 8.0.2-8.0.2-0~ubuntu22.04.1) date 2024-05-09 21:57:20*
%MOMM*%
%LPD*%
G01*
G04 APERTURE LIST*
G04 Aperture macros list*
%AMRoundRect*
0 Rectangle with rounded corners*
0 $1 Rounding radius*
0 $2 $3 $4 $5 $6 $7 $8 $9 X,Y pos of 4 corners*
0 Add a 4 corners polygon primitive as box body*
4,1,4,$2,$3,$4,$5,$6,$7,$8,$9,$2,$3,0*
0 Add four circle primitives for the rounded corners*
1,1,$1+$1,$2,$3*
1,1,$1+$1,$4,$5*
1,1,$1+$1,$6,$7*
1,1,$1+$1,$8,$9*
0 Add four rect primitives between the rounded corners*
20,1,$1+$1,$2,$3,$4,$5,0*
20,1,$1+$1,$4,$5,$6,$7,0*
20,1,$1+$1,$6,$7,$8,$9,0*
20,1,$1+$1,$8,$9,$2,$3,0*%
G04 Aperture macros list end*
G04 #@! TA.AperFunction,ComponentPad*
%ADD10O,1.800000X1.800000*%
G04 #@! TD*
G04 #@! TA.AperFunction,ComponentPad*
%ADD11R,1.800000X1.800000*%
G04 #@! TD*
G04 #@! TA.AperFunction,ComponentPad*
%ADD12R,2.200000X2.200000*%
G04 #@! TD*
G04 #@! TA.AperFunction,ComponentPad*
%ADD13O,2.200000X2.200000*%
G04 #@! TD*
G04 #@! TA.AperFunction,ComponentPad*
%ADD14C,1.600000*%
G04 #@! TD*
G04 #@! TA.AperFunction,ComponentPad*
%ADD15O,1.600000X1.600000*%
G04 #@! TD*
G04 #@! TA.AperFunction,ComponentPad*
%ADD16R,1.500000X1.050000*%
G04 #@! TD*
G04 #@! TA.AperFunction,ComponentPad*
%ADD17O,1.500000X1.050000*%
G04 #@! TD*
G04 #@! TA.AperFunction,ComponentPad*
%ADD18C,2.000000*%
G04 #@! TD*
G04 #@! TA.AperFunction,ComponentPad*
%ADD19RoundRect,0.250000X0.725000X-0.600000X0.725000X0.600000X-0.725000X0.600000X-0.725000X-0.600000X0*%
G04 #@! TD*
G04 #@! TA.AperFunction,ComponentPad*
%ADD20O,1.950000X1.700000*%
G04 #@! TD*
G04 #@! TA.AperFunction,ComponentPad*
%ADD21R,3.000000X3.000000*%
G04 #@! TD*
G04 #@! TA.AperFunction,ComponentPad*
%ADD22C,3.000000*%
G04 #@! TD*
G04 #@! TA.AperFunction,Conductor*
%ADD23C,3.000000*%
G04 #@! TD*
G04 #@! TA.AperFunction,Conductor*
%ADD24C,0.200000*%
G04 #@! TD*
G04 APERTURE END LIST*
D10*
X63500000Y-59000000D03*
X70500000Y-59000000D03*
D11*
X52000000Y-54300000D03*
D10*
X52000000Y-59000000D03*
D12*
X48750000Y-27920000D03*
D13*
X48750000Y-38080000D03*
D14*
X38440000Y-61832500D03*
D15*
X46060000Y-61832500D03*
D16*
X42332500Y-67852500D03*
D17*
X42332500Y-66582500D03*
X42332500Y-65312500D03*
D14*
X38440000Y-41250000D03*
D15*
X46060000Y-41250000D03*
D18*
X76740000Y-57580000D03*
X76750000Y-52500000D03*
D14*
X38440000Y-30750000D03*
D15*
X46060000Y-30750000D03*
D12*
X52170000Y-50250000D03*
D13*
X62330000Y-50250000D03*
D10*
X63500000Y-68750000D03*
X70500000Y-68750000D03*
D11*
X52000000Y-64050000D03*
D10*
X52000000Y-68750000D03*
X63500000Y-46000000D03*
X70500000Y-46000000D03*
D11*
X52000000Y-41300000D03*
D10*
X52000000Y-46000000D03*
D14*
X38440000Y-51750000D03*
D15*
X46060000Y-51750000D03*
D14*
X35750000Y-51380000D03*
D15*
X35750000Y-59000000D03*
D12*
X48750000Y-59170000D03*
D13*
X48750000Y-69330000D03*
D19*
X28000000Y-53750000D03*
D20*
X28000000Y-51250000D03*
X28000000Y-48750000D03*
X28000000Y-46250000D03*
X28000000Y-43750000D03*
X28000000Y-41250000D03*
D12*
X48750000Y-41170000D03*
D13*
X48750000Y-51330000D03*
D18*
X64040000Y-27750000D03*
X58960000Y-27740000D03*
D14*
X35750000Y-30190000D03*
D15*
X35750000Y-37810000D03*
D21*
X86000000Y-55500000D03*
D22*
X86000000Y-50420000D03*
X86000000Y-45340000D03*
X86000000Y-40260000D03*
D10*
X63417500Y-36667500D03*
X70417500Y-36667500D03*
D11*
X51917500Y-31967500D03*
D10*
X51917500Y-36667500D03*
D14*
X35750000Y-61272500D03*
D15*
X35750000Y-68892500D03*
D16*
X42332500Y-57500000D03*
D17*
X42332500Y-56230000D03*
X42332500Y-54960000D03*
D16*
X42332500Y-36500000D03*
D17*
X42332500Y-35230000D03*
X42332500Y-33960000D03*
D14*
X35750000Y-40690000D03*
D15*
X35750000Y-48310000D03*
D18*
X76750000Y-42250000D03*
X76760000Y-37170000D03*
D16*
X42332500Y-47290000D03*
D17*
X42332500Y-46020000D03*
X42332500Y-44750000D03*
D23*
X73070000Y-61250000D02*
X76740000Y-57580000D01*
X72250000Y-61250000D02*
X73070000Y-61250000D01*
X70500000Y-63000000D02*
X72250000Y-61250000D01*
X70500000Y-68750000D02*
X70500000Y-63000000D01*
X68500000Y-41000000D02*
X72930000Y-41000000D01*
X63500000Y-46000000D02*
X68500000Y-41000000D01*
X72930000Y-41000000D02*
X76760000Y-37170000D01*
D24*
X49580000Y-68750000D02*
X48750000Y-69580000D01*
X44060000Y-69580000D02*
X42332500Y-67852500D01*
X48750000Y-69580000D02*
X44060000Y-69580000D01*
X52000000Y-68750000D02*
X49580000Y-68750000D01*
D23*
X70500000Y-46000000D02*
X85340000Y-46000000D01*
X85340000Y-46000000D02*
X86000000Y-45340000D01*
D24*
X37880000Y-40690000D02*
X38440000Y-41250000D01*
X38440000Y-42381370D02*
X42078630Y-46020000D01*
X42078630Y-46020000D02*
X42332500Y-46020000D01*
X38440000Y-41250000D02*
X38440000Y-42381370D01*
X35750000Y-40690000D02*
X37880000Y-40690000D01*
X28000000Y-43750000D02*
X32560000Y-48310000D01*
X32560000Y-48310000D02*
X35750000Y-48310000D01*
D23*
X63500000Y-59000000D02*
X70000000Y-52500000D01*
X70000000Y-52500000D02*
X76750000Y-52500000D01*
X58960000Y-27740000D02*
X61000000Y-29780000D01*
X61000000Y-29780000D02*
X61000000Y-34250000D01*
X61000000Y-34250000D02*
X63417500Y-36667500D01*
X70417500Y-35082500D02*
X74500000Y-31000000D01*
X79250000Y-31000000D02*
X86000000Y-37750000D01*
X86000000Y-37750000D02*
X86000000Y-40260000D01*
X74500000Y-31000000D02*
X79250000Y-31000000D01*
X70417500Y-36667500D02*
X70417500Y-35082500D01*
D24*
X31250000Y-49500000D02*
X31250000Y-54500000D01*
X31250000Y-54500000D02*
X35750000Y-59000000D01*
X28000000Y-46250000D02*
X31250000Y-49500000D01*
X35750000Y-67500000D02*
X35750000Y-68892500D01*
X33000000Y-64750000D02*
X35750000Y-67500000D01*
X29000000Y-48750000D02*
X30500000Y-50250000D01*
X33000000Y-60078135D02*
X33000000Y-64750000D01*
X30500000Y-57578135D02*
X33000000Y-60078135D01*
X28000000Y-48750000D02*
X29000000Y-48750000D01*
X30500000Y-50250000D02*
X30500000Y-57578135D01*
X28000000Y-41250000D02*
X30750000Y-41250000D01*
X30750000Y-41250000D02*
X34190000Y-37810000D01*
X34190000Y-37810000D02*
X35750000Y-37810000D01*
X48750000Y-51330000D02*
X44710000Y-47290000D01*
X44710000Y-47290000D02*
X42332500Y-47290000D01*
X48750000Y-51330000D02*
X48750000Y-49250000D01*
X48750000Y-49250000D02*
X52000000Y-46000000D01*
X52000000Y-59000000D02*
X53500000Y-57500000D01*
X53500000Y-57500000D02*
X53500000Y-53250000D01*
X56500000Y-50250000D02*
X62330000Y-50250000D01*
X42332500Y-57500000D02*
X50500000Y-57500000D01*
X50500000Y-57500000D02*
X52000000Y-59000000D01*
X53500000Y-53250000D02*
X56500000Y-50250000D01*
X48750000Y-38080000D02*
X50505000Y-38080000D01*
X50505000Y-38080000D02*
X51917500Y-36667500D01*
X47170000Y-36500000D02*
X48750000Y-38080000D01*
X42332500Y-36500000D02*
X47170000Y-36500000D01*
X35750000Y-51380000D02*
X38070000Y-51380000D01*
X38440000Y-52881370D02*
X41788630Y-56230000D01*
X38070000Y-51380000D02*
X38440000Y-51750000D01*
X38440000Y-51750000D02*
X38440000Y-52881370D01*
X41788630Y-56230000D02*
X42332500Y-56230000D01*
X37880000Y-30190000D02*
X38440000Y-30750000D01*
X38440000Y-31881370D02*
X41788630Y-35230000D01*
X38440000Y-30750000D02*
X38440000Y-31881370D01*
X41788630Y-35230000D02*
X42332500Y-35230000D01*
X35750000Y-30190000D02*
X37880000Y-30190000D01*
X37880000Y-61272500D02*
X38440000Y-61832500D01*
X38440000Y-61832500D02*
X38440000Y-62963870D01*
X35750000Y-61272500D02*
X37880000Y-61272500D01*
X42058630Y-66582500D02*
X42332500Y-66582500D01*
X38440000Y-62963870D02*
X42058630Y-66582500D01*
G04 #@! TA.AperFunction,Conductor*
G36*
X53943039Y-25520185D02*
G01*
X53988794Y-25572989D01*
X54000000Y-25624500D01*
X54000000Y-48987726D01*
X53980315Y-49054765D01*
X53927511Y-49100520D01*
X53858353Y-49110464D01*
X53794797Y-49081439D01*
X53759818Y-49031059D01*
X53713797Y-48907671D01*
X53713793Y-48907664D01*
X53627547Y-48792455D01*
X53627544Y-48792452D01*
X53512335Y-48706206D01*
X53512328Y-48706202D01*
X53377482Y-48655908D01*
X53377483Y-48655908D01*
X53317883Y-48649501D01*
X53317881Y-48649500D01*
X53317873Y-48649500D01*
X53317864Y-48649500D01*
X51022129Y-48649500D01*
X51022123Y-48649501D01*
X50962516Y-48655908D01*
X50827671Y-48706202D01*
X50827664Y-48706206D01*
X50712455Y-48792452D01*
X50712452Y-48792455D01*
X50626206Y-48907664D01*
X50626202Y-48907671D01*
X50575908Y-49042517D01*
X50569501Y-49102116D01*
X50569500Y-49102135D01*
X50569500Y-51005102D01*
X50549815Y-51072141D01*
X50497011Y-51117896D01*
X50427853Y-51127840D01*
X50364297Y-51098815D01*
X50326523Y-51040037D01*
X50324931Y-51034070D01*
X50276873Y-50833889D01*
X50188222Y-50619865D01*
X50180466Y-50601140D01*
X50048839Y-50386346D01*
X50048838Y-50386343D01*
X49999911Y-50329057D01*
X49885224Y-50194776D01*
X49758571Y-50086604D01*
X49693656Y-50031161D01*
X49693653Y-50031160D01*
X49478858Y-49899533D01*
X49478859Y-49899533D01*
X49427047Y-49878072D01*
X49372643Y-49834230D01*
X49350579Y-49767936D01*
X49350500Y-49763511D01*
X49350500Y-49550096D01*
X49370185Y-49483057D01*
X49386814Y-49462420D01*
X51475160Y-47374073D01*
X51536481Y-47340590D01*
X51603102Y-47344474D01*
X51655019Y-47362298D01*
X51883951Y-47400500D01*
X51883952Y-47400500D01*
X52116048Y-47400500D01*
X52116049Y-47400500D01*
X52344981Y-47362298D01*
X52564503Y-47286936D01*
X52768626Y-47176470D01*
X52951784Y-47033913D01*
X53108979Y-46863153D01*
X53235924Y-46668849D01*
X53329157Y-46456300D01*
X53386134Y-46231305D01*
X53393392Y-46143713D01*
X53405300Y-46000006D01*
X53405300Y-45999993D01*
X53386135Y-45768702D01*
X53386133Y-45768691D01*
X53329157Y-45543699D01*
X53235924Y-45331151D01*
X53108983Y-45136852D01*
X53108980Y-45136849D01*
X53108979Y-45136847D01*
X52951784Y-44966087D01*
X52951779Y-44966083D01*
X52951777Y-44966081D01*
X52768634Y-44823535D01*
X52768628Y-44823531D01*
X52564504Y-44713064D01*
X52564495Y-44713061D01*
X52344984Y-44637702D01*
X52173282Y-44609050D01*
X52116049Y-44599500D01*
X51883951Y-44599500D01*
X51849463Y-44605255D01*
X51655015Y-44637702D01*
X51435504Y-44713061D01*
X51435495Y-44713064D01*
X51231371Y-44823531D01*
X51231365Y-44823535D01*
X51048222Y-44966081D01*
X51048219Y-44966084D01*
X51048216Y-44966086D01*
X51048216Y-44966087D01*
X50994328Y-45024625D01*
X50891016Y-45136852D01*
X50764075Y-45331151D01*
X50670842Y-45543699D01*
X50613866Y-45768691D01*
X50613864Y-45768702D01*
X50594700Y-45999993D01*
X50594700Y-46000006D01*
X50613864Y-46231297D01*
X50613866Y-46231309D01*
X50658319Y-46406848D01*
X50655694Y-46476668D01*
X50625794Y-46524969D01*
X48381286Y-48769478D01*
X48269481Y-48881282D01*
X48269475Y-48881290D01*
X48222455Y-48962733D01*
X48222455Y-48962734D01*
X48190423Y-49018215D01*
X48149499Y-49170943D01*
X48149499Y-49170945D01*
X48149499Y-49339046D01*
X48149500Y-49339059D01*
X48149500Y-49580902D01*
X48129815Y-49647941D01*
X48077011Y-49693696D01*
X48007853Y-49703640D01*
X47944297Y-49674615D01*
X47937819Y-49668583D01*
X45197590Y-46928355D01*
X45197588Y-46928352D01*
X45078717Y-46809481D01*
X45078716Y-46809480D01*
X44991904Y-46759360D01*
X44991904Y-46759359D01*
X44991900Y-46759358D01*
X44941785Y-46730423D01*
X44789057Y-46689499D01*
X44630943Y-46689499D01*
X44623347Y-46689499D01*
X44623331Y-46689500D01*
X43674615Y-46689500D01*
X43607576Y-46669815D01*
X43561821Y-46617011D01*
X43558433Y-46608833D01*
X43526297Y-46522671D01*
X43526296Y-46522670D01*
X43526296Y-46522669D01*
X43525467Y-46521562D01*
X43524985Y-46520268D01*
X43522046Y-46514886D01*
X43522819Y-46514463D01*
X43501051Y-46456099D01*
X43510175Y-46399798D01*
X43543589Y-46319132D01*
X43543589Y-46319131D01*
X43543591Y-46319127D01*
X43583000Y-46121003D01*
X43583000Y-45918997D01*
X43543591Y-45720873D01*
X43466286Y-45534244D01*
X43412294Y-45453439D01*
X43391417Y-45386764D01*
X43409901Y-45319384D01*
X43412296Y-45315658D01*
X43465844Y-45235518D01*
X43465846Y-45235515D01*
X43543109Y-45048983D01*
X43543112Y-45048974D01*
X43552853Y-45000000D01*
X42698366Y-45000000D01*
X42674174Y-44997617D01*
X42658504Y-44994500D01*
X42658503Y-44994500D01*
X42618330Y-44994500D01*
X42632575Y-44980255D01*
X42681944Y-44894745D01*
X42707500Y-44799370D01*
X42707500Y-44700630D01*
X42681944Y-44605255D01*
X42632575Y-44519745D01*
X42612830Y-44500000D01*
X43552853Y-44500000D01*
X43543112Y-44451025D01*
X43543109Y-44451016D01*
X43465847Y-44264486D01*
X43465840Y-44264473D01*
X43353670Y-44096600D01*
X43353667Y-44096596D01*
X43210903Y-43953832D01*
X43210899Y-43953829D01*
X43043026Y-43841659D01*
X43043013Y-43841652D01*
X42856483Y-43764390D01*
X42856474Y-43764387D01*
X42658458Y-43725000D01*
X42582500Y-43725000D01*
X42582500Y-44469670D01*
X42562755Y-44449925D01*
X42477245Y-44400556D01*
X42381870Y-44375000D01*
X42283130Y-44375000D01*
X42187755Y-44400556D01*
X42102245Y-44449925D01*
X42082500Y-44469670D01*
X42082500Y-43725000D01*
X42006541Y-43725000D01*
X41808525Y-43764387D01*
X41808516Y-43764390D01*
X41621986Y-43841652D01*
X41621973Y-43841659D01*
X41454100Y-43953829D01*
X41454096Y-43953832D01*
X41311332Y-44096596D01*
X41311329Y-44096600D01*
X41272360Y-44154922D01*
X41218748Y-44199727D01*
X41149423Y-44208434D01*
X41086395Y-44178279D01*
X41081577Y-44173712D01*
X39306207Y-42398342D01*
X39272722Y-42337019D01*
X39277706Y-42267327D01*
X39306207Y-42222980D01*
X39440045Y-42089141D01*
X39440047Y-42089139D01*
X39570568Y-41902734D01*
X39666739Y-41696496D01*
X39725635Y-41476692D01*
X39745468Y-41250000D01*
X39725635Y-41023308D01*
X39666739Y-40803504D01*
X39570568Y-40597266D01*
X39440047Y-40410861D01*
X39440045Y-40410858D01*
X39279141Y-40249954D01*
X39092734Y-40119432D01*
X39092732Y-40119431D01*
X38886497Y-40023261D01*
X38886488Y-40023258D01*
X38666697Y-39964366D01*
X38666693Y-39964365D01*
X38666692Y-39964365D01*
X38666691Y-39964364D01*
X38666686Y-39964364D01*
X38440002Y-39944532D01*
X38439998Y-39944532D01*
X38213313Y-39964364D01*
X38213302Y-39964366D01*
X37993511Y-40023258D01*
X37993504Y-40023260D01*
X37993504Y-40023261D01*
X37963471Y-40037266D01*
X37876372Y-40077881D01*
X37823967Y-40089499D01*
X37793347Y-40089499D01*
X37793331Y-40089500D01*
X36981692Y-40089500D01*
X36914653Y-40069815D01*
X36880119Y-40036625D01*
X36750047Y-39850861D01*
X36750045Y-39850858D01*
X36589141Y-39689954D01*
X36402734Y-39559432D01*
X36402732Y-39559431D01*
X36196497Y-39463261D01*
X36196488Y-39463258D01*
X35976697Y-39404366D01*
X35976693Y-39404365D01*
X35976692Y-39404365D01*
X35976691Y-39404364D01*
X35976686Y-39404364D01*
X35750002Y-39384532D01*
X35749998Y-39384532D01*
X35523313Y-39404364D01*
X35523302Y-39404366D01*
X35303511Y-39463258D01*
X35303502Y-39463261D01*
X35097267Y-39559431D01*
X35097265Y-39559432D01*
X34910858Y-39689954D01*
X34749954Y-39850858D01*
X34619432Y-40037265D01*
X34619431Y-40037267D01*
X34523261Y-40243502D01*
X34523258Y-40243511D01*
X34464366Y-40463302D01*
X34464364Y-40463313D01*
X34444532Y-40689998D01*
X34444532Y-40690001D01*
X34464364Y-40916686D01*
X34464366Y-40916697D01*
X34523258Y-41136488D01*
X34523261Y-41136497D01*
X34619431Y-41342732D01*
X34619432Y-41342734D01*
X34749954Y-41529141D01*
X34910858Y-41690045D01*
X34919828Y-41696326D01*
X35097266Y-41820568D01*
X35303504Y-41916739D01*
X35523308Y-41975635D01*
X35685230Y-41989801D01*
X35749998Y-41995468D01*
X35750000Y-41995468D01*
X35750002Y-41995468D01*
X35806673Y-41990509D01*
X35976692Y-41975635D01*
X36196496Y-41916739D01*
X36402734Y-41820568D01*
X36589139Y-41690047D01*
X36750047Y-41529139D01*
X36880118Y-41343375D01*
X36934693Y-41299752D01*
X36981692Y-41290500D01*
X37024450Y-41290500D01*
X37091489Y-41310185D01*
X37137244Y-41362989D01*
X37147978Y-41403692D01*
X37154364Y-41476687D01*
X37154366Y-41476697D01*
X37213258Y-41696488D01*
X37213261Y-41696497D01*
X37309431Y-41902732D01*
X37309432Y-41902734D01*
X37439954Y-42089141D01*
X37600859Y-42250046D01*
X37788527Y-42381452D01*
X37832152Y-42436029D01*
X37836610Y-42452786D01*
X37837396Y-42452576D01*
X37839499Y-42460424D01*
X37839499Y-42460427D01*
X37880423Y-42613155D01*
X37880424Y-42613157D01*
X37880423Y-42613157D01*
X37888732Y-42627547D01*
X37888733Y-42627548D01*
X37959477Y-42750082D01*
X37959481Y-42750087D01*
X38078349Y-42868955D01*
X38078355Y-42868960D01*
X41045681Y-45836286D01*
X41079166Y-45897609D01*
X41082000Y-45923967D01*
X41082000Y-46121007D01*
X41121407Y-46319119D01*
X41121409Y-46319127D01*
X41154825Y-46399800D01*
X41162294Y-46469270D01*
X41142538Y-46514660D01*
X41142954Y-46514887D01*
X41140419Y-46519528D01*
X41139537Y-46521556D01*
X41138706Y-46522665D01*
X41138702Y-46522672D01*
X41088408Y-46657517D01*
X41082001Y-46717116D01*
X41082000Y-46717135D01*
X41082000Y-47862870D01*
X41082001Y-47862876D01*
X41088408Y-47922483D01*
X41138702Y-48057328D01*
X41138706Y-48057335D01*
X41224952Y-48172544D01*
X41224955Y-48172547D01*
X41340164Y-48258793D01*
X41340171Y-48258797D01*
X41475017Y-48309091D01*
X41475016Y-48309091D01*
X41481944Y-48309835D01*
X41534627Y-48315500D01*
X43130372Y-48315499D01*
X43189983Y-48309091D01*
X43324831Y-48258796D01*
X43440046Y-48172546D01*
X43526296Y-48057331D01*
X43539059Y-48023111D01*
X43558434Y-47971166D01*
X43600306Y-47915233D01*
X43665770Y-47890816D01*
X43674616Y-47890500D01*
X44409903Y-47890500D01*
X44476942Y-47910185D01*
X44497584Y-47926819D01*
X47217707Y-50646943D01*
X47251192Y-50708266D01*
X47246208Y-50777958D01*
X47244587Y-50782077D01*
X47223627Y-50832679D01*
X47179786Y-50887082D01*
X47113492Y-50909147D01*
X47045793Y-50891868D01*
X47021385Y-50872907D01*
X46898820Y-50750342D01*
X46712482Y-50619865D01*
X46506328Y-50523734D01*
X46310000Y-50471127D01*
X46310000Y-51434314D01*
X46305606Y-51429920D01*
X46214394Y-51377259D01*
X46112661Y-51350000D01*
X46007339Y-51350000D01*
X45905606Y-51377259D01*
X45814394Y-51429920D01*
X45810000Y-51434314D01*
X45810000Y-50471127D01*
X45613671Y-50523734D01*
X45407517Y-50619865D01*
X45221179Y-50750342D01*
X45060342Y-50911179D01*
X44929865Y-51097517D01*
X44833734Y-51303673D01*
X44833730Y-51303682D01*
X44781127Y-51499999D01*
X44781128Y-51500000D01*
X45744314Y-51500000D01*
X45739920Y-51504394D01*
X45687259Y-51595606D01*
X45660000Y-51697339D01*
X45660000Y-51802661D01*
X45687259Y-51904394D01*
X45739920Y-51995606D01*
X45744314Y-52000000D01*
X44781128Y-52000000D01*
X44833730Y-52196317D01*
X44833734Y-52196326D01*
X44929865Y-52402482D01*
X45060342Y-52588820D01*
X45221179Y-52749657D01*
X45407517Y-52880134D01*
X45613673Y-52976265D01*
X45613682Y-52976269D01*
X45809999Y-53028872D01*
X45810000Y-53028871D01*
X45810000Y-52065686D01*
X45814394Y-52070080D01*
X45905606Y-52122741D01*
X46007339Y-52150000D01*
X46112661Y-52150000D01*
X46214394Y-52122741D01*
X46305606Y-52070080D01*
X46310000Y-52065686D01*
X46310000Y-53028872D01*
X46506317Y-52976269D01*
X46506326Y-52976265D01*
X46712482Y-52880134D01*
X46898820Y-52749657D01*
X47059657Y-52588820D01*
X47190134Y-52402481D01*
X47190135Y-52402479D01*
X47239798Y-52295977D01*
X47285970Y-52243537D01*
X47353163Y-52224385D01*
X47420044Y-52244600D01*
X47447305Y-52270547D01*
X47448000Y-52269954D01*
X47451162Y-52273656D01*
X47451164Y-52273659D01*
X47614776Y-52465224D01*
X47759488Y-52588820D01*
X47806343Y-52628838D01*
X47806346Y-52628839D01*
X48021140Y-52760466D01*
X48116517Y-52799972D01*
X48253889Y-52856873D01*
X48498852Y-52915683D01*
X48750000Y-52935449D01*
X49001148Y-52915683D01*
X49246111Y-52856873D01*
X49478859Y-52760466D01*
X49693659Y-52628836D01*
X49885224Y-52465224D01*
X50048836Y-52273659D01*
X50180466Y-52058859D01*
X50276873Y-51826111D01*
X50335683Y-51581148D01*
X50341610Y-51505831D01*
X50366493Y-51440547D01*
X50422723Y-51399076D01*
X50492449Y-51394589D01*
X50553531Y-51428510D01*
X50581409Y-51472231D01*
X50626202Y-51592328D01*
X50626206Y-51592335D01*
X50712452Y-51707544D01*
X50712455Y-51707547D01*
X50827664Y-51793793D01*
X50827671Y-51793797D01*
X50962517Y-51844091D01*
X50962516Y-51844091D01*
X50969444Y-51844835D01*
X51022127Y-51850500D01*
X53317872Y-51850499D01*
X53377483Y-51844091D01*
X53512331Y-51793796D01*
X53627546Y-51707546D01*
X53713796Y-51592331D01*
X53748234Y-51499999D01*
X53759818Y-51468940D01*
X53801689Y-51413006D01*
X53867153Y-51388589D01*
X53935426Y-51403440D01*
X53984832Y-51452845D01*
X54000000Y-51512273D01*
X54000000Y-51849402D01*
X53980315Y-51916441D01*
X53963681Y-51937083D01*
X53131286Y-52769478D01*
X53131284Y-52769480D01*
X53070101Y-52830663D01*
X53037582Y-52863182D01*
X52976258Y-52896666D01*
X52949901Y-52899500D01*
X51052129Y-52899500D01*
X51052123Y-52899501D01*
X50992516Y-52905908D01*
X50857671Y-52956202D01*
X50857664Y-52956206D01*
X50742455Y-53042452D01*
X50742452Y-53042455D01*
X50656206Y-53157664D01*
X50656202Y-53157671D01*
X50605908Y-53292517D01*
X50599501Y-53352116D01*
X50599500Y-53352135D01*
X50599500Y-55247870D01*
X50599501Y-55247876D01*
X50605908Y-55307483D01*
X50656202Y-55442328D01*
X50656206Y-55442335D01*
X50742452Y-55557544D01*
X50742455Y-55557547D01*
X50857664Y-55643793D01*
X50857671Y-55643797D01*
X50992517Y-55694091D01*
X50992516Y-55694091D01*
X50999444Y-55694835D01*
X51052127Y-55700500D01*
X52775500Y-55700499D01*
X52842539Y-55720184D01*
X52888294Y-55772987D01*
X52899500Y-55824499D01*
X52899500Y-57199902D01*
X52879815Y-57266941D01*
X52863181Y-57287583D01*
X52524840Y-57625923D01*
X52463517Y-57659408D01*
X52396898Y-57655524D01*
X52344981Y-57637702D01*
X52274393Y-57625923D01*
X52116049Y-57599500D01*
X51883951Y-57599500D01*
X51845795Y-57605867D01*
X51655014Y-57637702D01*
X51603098Y-57655524D01*
X51533300Y-57658672D01*
X51475158Y-57625923D01*
X50987590Y-57138355D01*
X50987588Y-57138352D01*
X50868717Y-57019481D01*
X50868716Y-57019480D01*
X50781904Y-56969360D01*
X50781904Y-56969359D01*
X50781900Y-56969358D01*
X50731785Y-56940423D01*
X50579057Y-56899499D01*
X50420943Y-56899499D01*
X50413347Y-56899499D01*
X50413331Y-56899500D01*
X43674615Y-56899500D01*
X43607576Y-56879815D01*
X43561821Y-56827011D01*
X43558433Y-56818833D01*
X43526297Y-56732671D01*
X43526296Y-56732670D01*
X43526296Y-56732669D01*
X43525467Y-56731562D01*
X43524985Y-56730268D01*
X43522046Y-56724886D01*
X43522819Y-56724463D01*
X43501051Y-56666099D01*
X43510175Y-56609798D01*
X43543589Y-56529132D01*
X43543589Y-56529131D01*
X43543591Y-56529127D01*
X43583000Y-56331003D01*
X43583000Y-56128997D01*
X43543591Y-55930873D01*
X43466286Y-55744244D01*
X43412294Y-55663439D01*
X43391417Y-55596764D01*
X43409901Y-55529384D01*
X43412296Y-55525658D01*
X43465844Y-55445518D01*
X43465846Y-55445515D01*
X43543109Y-55258983D01*
X43543112Y-55258974D01*
X43552853Y-55210000D01*
X42698366Y-55210000D01*
X42674174Y-55207617D01*
X42658504Y-55204500D01*
X42658503Y-55204500D01*
X42618330Y-55204500D01*
X42632575Y-55190255D01*
X42681944Y-55104745D01*
X42707500Y-55009370D01*
X42707500Y-54910630D01*
X42681944Y-54815255D01*
X42632575Y-54729745D01*
X42612830Y-54710000D01*
X43552853Y-54710000D01*
X43543112Y-54661025D01*
X43543109Y-54661016D01*
X43465847Y-54474486D01*
X43465840Y-54474473D01*
X43353670Y-54306600D01*
X43353667Y-54306596D01*
X43210903Y-54163832D01*
X43210899Y-54163829D01*
X43043026Y-54051659D01*
X43043013Y-54051652D01*
X42856483Y-53974390D01*
X42856474Y-53974387D01*
X42658458Y-53935000D01*
X42582500Y-53935000D01*
X42582500Y-54679670D01*
X42562755Y-54659925D01*
X42477245Y-54610556D01*
X42381870Y-54585000D01*
X42283130Y-54585000D01*
X42187755Y-54610556D01*
X42102245Y-54659925D01*
X42082500Y-54679670D01*
X42082500Y-53935000D01*
X42006541Y-53935000D01*
X41808525Y-53974387D01*
X41808516Y-53974390D01*
X41621986Y-54051652D01*
X41621973Y-54051659D01*
X41454100Y-54163829D01*
X41454096Y-54163832D01*
X41311332Y-54306596D01*
X41311329Y-54306600D01*
X41199159Y-54474473D01*
X41199152Y-54474486D01*
X41177382Y-54527046D01*
X41133541Y-54581450D01*
X41067247Y-54603515D01*
X40999548Y-54586236D01*
X40975140Y-54567275D01*
X39306207Y-52898342D01*
X39272722Y-52837019D01*
X39277706Y-52767327D01*
X39306207Y-52722980D01*
X39440045Y-52589141D01*
X39440047Y-52589139D01*
X39570568Y-52402734D01*
X39666739Y-52196496D01*
X39725635Y-51976692D01*
X39745468Y-51750000D01*
X39725635Y-51523308D01*
X39666739Y-51303504D01*
X39570568Y-51097266D01*
X39440047Y-50910861D01*
X39440045Y-50910858D01*
X39279141Y-50749954D01*
X39092734Y-50619432D01*
X39092732Y-50619431D01*
X38886497Y-50523261D01*
X38886488Y-50523258D01*
X38666697Y-50464366D01*
X38666693Y-50464365D01*
X38666692Y-50464365D01*
X38666691Y-50464364D01*
X38666686Y-50464364D01*
X38440002Y-50444532D01*
X38439998Y-50444532D01*
X38213313Y-50464364D01*
X38213302Y-50464366D01*
X37993511Y-50523258D01*
X37993502Y-50523261D01*
X37787267Y-50619431D01*
X37787265Y-50619432D01*
X37600857Y-50749954D01*
X37600214Y-50750495D01*
X37599873Y-50750643D01*
X37596426Y-50753058D01*
X37595940Y-50752364D01*
X37536203Y-50778504D01*
X37520515Y-50779500D01*
X36981692Y-50779500D01*
X36914653Y-50759815D01*
X36880119Y-50726625D01*
X36750047Y-50540861D01*
X36750045Y-50540858D01*
X36589141Y-50379954D01*
X36402734Y-50249432D01*
X36402732Y-50249431D01*
X36196497Y-50153261D01*
X36196488Y-50153258D01*
X35976697Y-50094366D01*
X35976693Y-50094365D01*
X35976692Y-50094365D01*
X35976691Y-50094364D01*
X35976686Y-50094364D01*
X35750002Y-50074532D01*
X35749998Y-50074532D01*
X35523313Y-50094364D01*
X35523302Y-50094366D01*
X35303511Y-50153258D01*
X35303502Y-50153261D01*
X35097267Y-50249431D01*
X35097265Y-50249432D01*
X34910858Y-50379954D01*
X34749954Y-50540858D01*
X34619432Y-50727265D01*
X34619431Y-50727267D01*
X34523261Y-50933502D01*
X34523258Y-50933511D01*
X34464366Y-51153302D01*
X34464364Y-51153313D01*
X34444532Y-51379998D01*
X34444532Y-51380001D01*
X34464364Y-51606686D01*
X34464366Y-51606697D01*
X34523258Y-51826488D01*
X34523261Y-51826497D01*
X34619431Y-52032732D01*
X34619432Y-52032734D01*
X34749954Y-52219141D01*
X34910858Y-52380045D01*
X34942900Y-52402481D01*
X35097266Y-52510568D01*
X35303504Y-52606739D01*
X35523308Y-52665635D01*
X35685230Y-52679801D01*
X35749998Y-52685468D01*
X35750000Y-52685468D01*
X35750002Y-52685468D01*
X35806673Y-52680509D01*
X35976692Y-52665635D01*
X36196496Y-52606739D01*
X36402734Y-52510568D01*
X36589139Y-52380047D01*
X36750047Y-52219139D01*
X36880118Y-52033375D01*
X36934693Y-51989752D01*
X36981692Y-51980500D01*
X37060236Y-51980500D01*
X37127275Y-52000185D01*
X37173030Y-52052989D01*
X37180011Y-52072406D01*
X37213259Y-52196491D01*
X37213261Y-52196497D01*
X37309431Y-52402732D01*
X37309432Y-52402734D01*
X37439954Y-52589141D01*
X37600859Y-52750046D01*
X37788527Y-52881452D01*
X37832152Y-52936029D01*
X37836610Y-52952786D01*
X37837396Y-52952576D01*
X37839499Y-52960424D01*
X37839499Y-52960427D01*
X37861479Y-53042455D01*
X37880423Y-53113155D01*
X37909358Y-53163270D01*
X37909359Y-53163274D01*
X37909360Y-53163274D01*
X37959479Y-53250084D01*
X37959481Y-53250087D01*
X38078349Y-53368955D01*
X38078355Y-53368960D01*
X41065731Y-56356336D01*
X41099216Y-56417659D01*
X41099667Y-56419826D01*
X41121407Y-56529119D01*
X41121409Y-56529127D01*
X41154825Y-56609800D01*
X41162294Y-56679270D01*
X41142538Y-56724660D01*
X41142954Y-56724887D01*
X41140419Y-56729528D01*
X41139537Y-56731556D01*
X41138706Y-56732665D01*
X41138702Y-56732672D01*
X41088408Y-56867517D01*
X41082001Y-56927116D01*
X41082000Y-56927135D01*
X41082000Y-58072870D01*
X41082001Y-58072876D01*
X41088408Y-58132483D01*
X41138702Y-58267328D01*
X41138706Y-58267335D01*
X41224952Y-58382544D01*
X41224955Y-58382547D01*
X41340164Y-58468793D01*
X41340171Y-58468797D01*
X41475017Y-58519091D01*
X41475016Y-58519091D01*
X41481944Y-58519835D01*
X41534627Y-58525500D01*
X43130372Y-58525499D01*
X43189983Y-58519091D01*
X43324831Y-58468796D01*
X43440046Y-58382546D01*
X43526296Y-58267331D01*
X43551508Y-58199734D01*
X43558434Y-58181166D01*
X43600306Y-58125233D01*
X43665770Y-58100816D01*
X43674616Y-58100500D01*
X47025500Y-58100500D01*
X47092539Y-58120185D01*
X47138294Y-58172989D01*
X47149500Y-58224500D01*
X47149500Y-60317870D01*
X47149501Y-60317876D01*
X47155908Y-60377483D01*
X47206202Y-60512328D01*
X47206206Y-60512335D01*
X47292452Y-60627544D01*
X47292455Y-60627547D01*
X47407664Y-60713793D01*
X47407671Y-60713797D01*
X47542517Y-60764091D01*
X47542516Y-60764091D01*
X47549444Y-60764835D01*
X47602127Y-60770500D01*
X49897872Y-60770499D01*
X49957483Y-60764091D01*
X50092331Y-60713796D01*
X50207546Y-60627546D01*
X50293796Y-60512331D01*
X50344091Y-60377483D01*
X50350500Y-60317873D01*
X50350499Y-59050980D01*
X50365963Y-58998317D01*
X50353043Y-58974008D01*
X50350499Y-58949018D01*
X50350499Y-58499096D01*
X50370184Y-58432057D01*
X50422988Y-58386302D01*
X50492146Y-58376358D01*
X50555702Y-58405383D01*
X50562180Y-58411415D01*
X50625795Y-58475030D01*
X50659280Y-58536353D01*
X50658320Y-58593151D01*
X50613866Y-58768691D01*
X50613864Y-58768703D01*
X50598075Y-58959258D01*
X50582657Y-58999212D01*
X50593476Y-59016047D01*
X50598075Y-59040742D01*
X50613864Y-59231296D01*
X50613866Y-59231308D01*
X50670842Y-59456300D01*
X50764075Y-59668848D01*
X50891016Y-59863147D01*
X50891019Y-59863151D01*
X50891021Y-59863153D01*
X51048216Y-60033913D01*
X51048219Y-60033915D01*
X51048222Y-60033918D01*
X51231365Y-60176464D01*
X51231371Y-60176468D01*
X51231374Y-60176470D01*
X51435497Y-60286936D01*
X51525622Y-60317876D01*
X51655015Y-60362297D01*
X51655017Y-60362297D01*
X51655019Y-60362298D01*
X51883951Y-60400500D01*
X51883952Y-60400500D01*
X52116048Y-60400500D01*
X52116049Y-60400500D01*
X52344981Y-60362298D01*
X52564503Y-60286936D01*
X52768626Y-60176470D01*
X52793395Y-60157192D01*
X52929323Y-60051395D01*
X52951784Y-60033913D01*
X53108979Y-59863153D01*
X53235924Y-59668849D01*
X53329157Y-59456300D01*
X53386134Y-59231305D01*
X53386516Y-59226697D01*
X53405300Y-59000006D01*
X53405300Y-58999993D01*
X53386135Y-58768702D01*
X53386131Y-58768682D01*
X53341680Y-58593151D01*
X53344304Y-58523331D01*
X53374202Y-58475031D01*
X53788319Y-58060915D01*
X53849642Y-58027430D01*
X53919334Y-58032414D01*
X53975267Y-58074286D01*
X53999684Y-58139750D01*
X54000000Y-58148596D01*
X54000000Y-70375500D01*
X53980315Y-70442539D01*
X53927511Y-70488294D01*
X53876000Y-70499500D01*
X50124926Y-70499500D01*
X50057887Y-70479815D01*
X50012132Y-70427011D01*
X50002188Y-70357853D01*
X50030636Y-70294968D01*
X50048836Y-70273659D01*
X50180466Y-70058859D01*
X50276873Y-69826111D01*
X50335683Y-69581148D01*
X50344842Y-69464768D01*
X50369726Y-69399482D01*
X50425958Y-69358012D01*
X50468460Y-69350500D01*
X50653199Y-69350500D01*
X50720238Y-69370185D01*
X50762253Y-69415481D01*
X50764075Y-69418848D01*
X50891016Y-69613147D01*
X50891019Y-69613151D01*
X50891021Y-69613153D01*
X51048216Y-69783913D01*
X51048219Y-69783915D01*
X51048222Y-69783918D01*
X51231365Y-69926464D01*
X51231371Y-69926468D01*
X51231374Y-69926470D01*
X51435497Y-70036936D01*
X51499357Y-70058859D01*
X51655015Y-70112297D01*
X51655017Y-70112297D01*
X51655019Y-70112298D01*
X51883951Y-70150500D01*
X51883952Y-70150500D01*
X52116048Y-70150500D01*
X52116049Y-70150500D01*
X52344981Y-70112298D01*
X52564503Y-70036936D01*
X52768626Y-69926470D01*
X52812211Y-69892547D01*
X52830129Y-69878600D01*
X52951784Y-69783913D01*
X53108979Y-69613153D01*
X53235924Y-69418849D01*
X53329157Y-69206300D01*
X53386134Y-68981305D01*
X53389293Y-68943181D01*
X53405300Y-68750006D01*
X53405300Y-68749993D01*
X53386135Y-68518702D01*
X53386133Y-68518691D01*
X53329157Y-68293699D01*
X53235924Y-68081151D01*
X53108983Y-67886852D01*
X53108980Y-67886849D01*
X53108979Y-67886847D01*
X52951784Y-67716087D01*
X52951779Y-67716083D01*
X52951777Y-67716081D01*
X52768634Y-67573535D01*
X52768628Y-67573531D01*
X52564504Y-67463064D01*
X52564495Y-67463061D01*
X52344984Y-67387702D01*
X52173282Y-67359050D01*
X52116049Y-67349500D01*
X51883951Y-67349500D01*
X51838164Y-67357140D01*
X51655015Y-67387702D01*
X51435504Y-67463061D01*
X51435495Y-67463064D01*
X51231371Y-67573531D01*
X51231365Y-67573535D01*
X51048222Y-67716081D01*
X51048219Y-67716084D01*
X51048216Y-67716086D01*
X51048216Y-67716087D01*
X51028436Y-67737574D01*
X50891016Y-67886852D01*
X50764075Y-68081151D01*
X50762253Y-68084519D01*
X50713033Y-68134109D01*
X50653199Y-68149500D01*
X49877958Y-68149500D01*
X49810919Y-68129815D01*
X49797433Y-68119795D01*
X49729469Y-68061748D01*
X49693656Y-68031161D01*
X49693653Y-68031160D01*
X49478859Y-67899533D01*
X49246110Y-67803126D01*
X49001151Y-67744317D01*
X48750000Y-67724551D01*
X48498848Y-67744317D01*
X48253889Y-67803126D01*
X48021140Y-67899533D01*
X47806346Y-68031160D01*
X47806343Y-68031161D01*
X47614776Y-68194776D01*
X47451161Y-68386343D01*
X47451160Y-68386346D01*
X47319533Y-68601140D01*
X47223126Y-68833889D01*
X47210989Y-68884447D01*
X47176198Y-68945039D01*
X47114172Y-68977203D01*
X47090415Y-68979500D01*
X44360097Y-68979500D01*
X44293058Y-68959815D01*
X44272416Y-68943181D01*
X43619318Y-68290083D01*
X43585833Y-68228760D01*
X43582999Y-68202402D01*
X43582999Y-67279629D01*
X43582998Y-67279623D01*
X43582997Y-67279616D01*
X43576591Y-67220017D01*
X43567818Y-67196496D01*
X43526297Y-67085171D01*
X43526296Y-67085170D01*
X43526296Y-67085169D01*
X43525467Y-67084062D01*
X43524985Y-67082768D01*
X43522046Y-67077386D01*
X43522819Y-67076963D01*
X43501051Y-67018599D01*
X43510175Y-66962298D01*
X43543589Y-66881632D01*
X43543589Y-66881631D01*
X43543591Y-66881627D01*
X43583000Y-66683503D01*
X43583000Y-66481497D01*
X43543591Y-66283373D01*
X43466286Y-66096744D01*
X43412294Y-66015939D01*
X43391417Y-65949264D01*
X43409901Y-65881884D01*
X43412296Y-65878158D01*
X43465844Y-65798018D01*
X43465846Y-65798015D01*
X43543109Y-65611483D01*
X43543112Y-65611474D01*
X43552853Y-65562500D01*
X42698366Y-65562500D01*
X42674174Y-65560117D01*
X42658504Y-65557000D01*
X42658503Y-65557000D01*
X42618330Y-65557000D01*
X42632575Y-65542755D01*
X42681944Y-65457245D01*
X42707500Y-65361870D01*
X42707500Y-65263130D01*
X42681944Y-65167755D01*
X42632575Y-65082245D01*
X42612830Y-65062500D01*
X43552853Y-65062500D01*
X43543112Y-65013525D01*
X43543109Y-65013516D01*
X43465847Y-64826986D01*
X43465840Y-64826973D01*
X43353670Y-64659100D01*
X43353667Y-64659096D01*
X43210903Y-64516332D01*
X43210899Y-64516329D01*
X43043026Y-64404159D01*
X43043013Y-64404152D01*
X42856483Y-64326890D01*
X42856474Y-64326887D01*
X42658458Y-64287500D01*
X42582500Y-64287500D01*
X42582500Y-65032170D01*
X42562755Y-65012425D01*
X42477245Y-64963056D01*
X42381870Y-64937500D01*
X42283130Y-64937500D01*
X42187755Y-64963056D01*
X42102245Y-65012425D01*
X42082500Y-65032170D01*
X42082500Y-64287500D01*
X42006541Y-64287500D01*
X41808525Y-64326887D01*
X41808516Y-64326890D01*
X41621986Y-64404152D01*
X41621973Y-64404159D01*
X41454100Y-64516329D01*
X41454096Y-64516332D01*
X41311332Y-64659096D01*
X41264349Y-64729411D01*
X41210736Y-64774215D01*
X41141411Y-64782922D01*
X41078384Y-64752767D01*
X41073566Y-64748200D01*
X39306207Y-62980841D01*
X39272722Y-62919518D01*
X39277706Y-62849826D01*
X39306205Y-62805480D01*
X39440047Y-62671639D01*
X39570568Y-62485234D01*
X39666739Y-62278996D01*
X39725635Y-62059192D01*
X39745468Y-61832500D01*
X39725635Y-61605808D01*
X39719389Y-61582499D01*
X44781127Y-61582499D01*
X44781128Y-61582500D01*
X45744314Y-61582500D01*
X45739920Y-61586894D01*
X45687259Y-61678106D01*
X45660000Y-61779839D01*
X45660000Y-61885161D01*
X45687259Y-61986894D01*
X45739920Y-62078106D01*
X45744314Y-62082500D01*
X44781128Y-62082500D01*
X44833730Y-62278817D01*
X44833734Y-62278826D01*
X44929865Y-62484982D01*
X45060342Y-62671320D01*
X45221179Y-62832157D01*
X45407517Y-62962634D01*
X45613673Y-63058765D01*
X45613682Y-63058769D01*
X45809999Y-63111372D01*
X45810000Y-63111371D01*
X45810000Y-62148186D01*
X45814394Y-62152580D01*
X45905606Y-62205241D01*
X46007339Y-62232500D01*
X46112661Y-62232500D01*
X46214394Y-62205241D01*
X46305606Y-62152580D01*
X46310000Y-62148186D01*
X46310000Y-63111372D01*
X46344473Y-63102135D01*
X50599500Y-63102135D01*
X50599500Y-64997870D01*
X50599501Y-64997872D01*
X50605908Y-65057483D01*
X50656202Y-65192328D01*
X50656206Y-65192335D01*
X50742452Y-65307544D01*
X50742455Y-65307547D01*
X50857664Y-65393793D01*
X50857671Y-65393797D01*
X50992517Y-65444091D01*
X50992516Y-65444091D01*
X50999444Y-65444835D01*
X51052127Y-65450500D01*
X52947872Y-65450499D01*
X53007483Y-65444091D01*
X53142331Y-65393796D01*
X53257546Y-65307546D01*
X53343796Y-65192331D01*
X53394091Y-65057483D01*
X53400500Y-64997873D01*
X53400499Y-63102128D01*
X53394091Y-63042517D01*
X53371087Y-62980841D01*
X53343797Y-62907671D01*
X53343793Y-62907664D01*
X53257547Y-62792455D01*
X53257544Y-62792452D01*
X53142335Y-62706206D01*
X53142328Y-62706202D01*
X53007482Y-62655908D01*
X53007483Y-62655908D01*
X52947883Y-62649501D01*
X52947881Y-62649500D01*
X52947873Y-62649500D01*
X52947864Y-62649500D01*
X51052129Y-62649500D01*
X51052123Y-62649501D01*
X50992516Y-62655908D01*
X50857671Y-62706202D01*
X50857664Y-62706206D01*
X50742455Y-62792452D01*
X50742452Y-62792455D01*
X50656206Y-62907664D01*
X50656202Y-62907671D01*
X50605908Y-63042517D01*
X50599501Y-63102116D01*
X50599501Y-63102123D01*
X50599500Y-63102135D01*
X46344473Y-63102135D01*
X46506317Y-63058769D01*
X46506326Y-63058765D01*
X46712482Y-62962634D01*
X46898820Y-62832157D01*
X47059657Y-62671320D01*
X47190134Y-62484982D01*
X47286265Y-62278826D01*
X47286269Y-62278817D01*
X47338872Y-62082500D01*
X46375686Y-62082500D01*
X46380080Y-62078106D01*
X46432741Y-61986894D01*
X46460000Y-61885161D01*
X46460000Y-61779839D01*
X46432741Y-61678106D01*
X46380080Y-61586894D01*
X46375686Y-61582500D01*
X47338872Y-61582500D01*
X47338872Y-61582499D01*
X47286269Y-61386182D01*
X47286265Y-61386173D01*
X47190134Y-61180017D01*
X47059657Y-60993679D01*
X46898820Y-60832842D01*
X46712482Y-60702365D01*
X46506328Y-60606234D01*
X46310000Y-60553627D01*
X46310000Y-61516814D01*
X46305606Y-61512420D01*
X46214394Y-61459759D01*
X46112661Y-61432500D01*
X46007339Y-61432500D01*
X45905606Y-61459759D01*
X45814394Y-61512420D01*
X45810000Y-61516814D01*
X45810000Y-60553627D01*
X45613671Y-60606234D01*
X45407517Y-60702365D01*
X45221179Y-60832842D01*
X45060342Y-60993679D01*
X44929865Y-61180017D01*
X44833734Y-61386173D01*
X44833730Y-61386182D01*
X44781127Y-61582499D01*
X39719389Y-61582499D01*
X39666739Y-61386004D01*
X39570568Y-61179766D01*
X39440047Y-60993361D01*
X39440045Y-60993358D01*
X39279141Y-60832454D01*
X39092734Y-60701932D01*
X39092732Y-60701931D01*
X38886497Y-60605761D01*
X38886488Y-60605758D01*
X38666697Y-60546866D01*
X38666693Y-60546865D01*
X38666692Y-60546865D01*
X38666691Y-60546864D01*
X38666686Y-60546864D01*
X38440002Y-60527032D01*
X38439998Y-60527032D01*
X38213313Y-60546864D01*
X38213302Y-60546866D01*
X37993511Y-60605758D01*
X37993504Y-60605760D01*
X37993504Y-60605761D01*
X37946791Y-60627544D01*
X37876372Y-60660381D01*
X37823967Y-60671999D01*
X37793347Y-60671999D01*
X37793331Y-60672000D01*
X36981692Y-60672000D01*
X36914653Y-60652315D01*
X36880119Y-60619125D01*
X36750047Y-60433361D01*
X36750045Y-60433358D01*
X36589141Y-60272454D01*
X36539685Y-60237825D01*
X36496060Y-60183249D01*
X36488866Y-60113750D01*
X36520388Y-60051395D01*
X36539685Y-60034675D01*
X36554282Y-60024453D01*
X36589139Y-60000047D01*
X36750047Y-59839139D01*
X36880568Y-59652734D01*
X36976739Y-59446496D01*
X37035635Y-59226692D01*
X37054064Y-59016047D01*
X37055468Y-59000001D01*
X37055468Y-58999998D01*
X37035635Y-58773313D01*
X37035635Y-58773308D01*
X36976739Y-58553504D01*
X36880568Y-58347266D01*
X36750047Y-58160861D01*
X36750045Y-58160858D01*
X36589141Y-57999954D01*
X36402734Y-57869432D01*
X36402732Y-57869431D01*
X36196497Y-57773261D01*
X36196488Y-57773258D01*
X35976697Y-57714366D01*
X35976693Y-57714365D01*
X35976692Y-57714365D01*
X35976691Y-57714364D01*
X35976686Y-57714364D01*
X35750002Y-57694532D01*
X35749998Y-57694532D01*
X35523313Y-57714364D01*
X35523302Y-57714366D01*
X35427067Y-57740152D01*
X35357217Y-57738489D01*
X35307293Y-57708058D01*
X31886819Y-54287584D01*
X31853334Y-54226261D01*
X31850500Y-54199903D01*
X31850500Y-49420945D01*
X31850500Y-49420943D01*
X31809577Y-49268216D01*
X31809577Y-49268215D01*
X31756275Y-49175894D01*
X31740830Y-49149141D01*
X31730522Y-49131287D01*
X31730521Y-49131286D01*
X31730520Y-49131284D01*
X31618716Y-49019480D01*
X31618715Y-49019479D01*
X31614385Y-49015149D01*
X31614374Y-49015139D01*
X29428102Y-46828867D01*
X29394617Y-46767544D01*
X29397851Y-46702874D01*
X29442246Y-46566243D01*
X29475500Y-46356287D01*
X29475500Y-46356281D01*
X29475925Y-46353598D01*
X29505854Y-46290463D01*
X29565165Y-46253531D01*
X29635028Y-46254529D01*
X29686079Y-46285314D01*
X32075139Y-48674374D01*
X32075149Y-48674385D01*
X32079479Y-48678715D01*
X32079480Y-48678716D01*
X32191284Y-48790520D01*
X32191286Y-48790521D01*
X32191290Y-48790524D01*
X32258028Y-48829055D01*
X32258032Y-48829056D01*
X32258033Y-48829057D01*
X32328215Y-48869577D01*
X32480943Y-48910501D01*
X32480946Y-48910501D01*
X32646653Y-48910501D01*
X32646669Y-48910500D01*
X34518308Y-48910500D01*
X34585347Y-48930185D01*
X34619880Y-48963374D01*
X34675296Y-49042517D01*
X34749954Y-49149141D01*
X34910858Y-49310045D01*
X34910861Y-49310047D01*
X35097266Y-49440568D01*
X35303504Y-49536739D01*
X35523308Y-49595635D01*
X35685230Y-49609801D01*
X35749998Y-49615468D01*
X35750000Y-49615468D01*
X35750002Y-49615468D01*
X35806673Y-49610509D01*
X35976692Y-49595635D01*
X36196496Y-49536739D01*
X36402734Y-49440568D01*
X36589139Y-49310047D01*
X36750047Y-49149139D01*
X36880568Y-48962734D01*
X36976739Y-48756496D01*
X37035635Y-48536692D01*
X37055468Y-48310000D01*
X37055388Y-48309091D01*
X37035635Y-48083313D01*
X37035635Y-48083308D01*
X36976739Y-47863504D01*
X36880568Y-47657266D01*
X36750047Y-47470861D01*
X36750045Y-47470858D01*
X36589141Y-47309954D01*
X36402734Y-47179432D01*
X36402732Y-47179431D01*
X36196497Y-47083261D01*
X36196488Y-47083258D01*
X35976697Y-47024366D01*
X35976693Y-47024365D01*
X35976692Y-47024365D01*
X35976691Y-47024364D01*
X35976686Y-47024364D01*
X35750002Y-47004532D01*
X35749998Y-47004532D01*
X35523313Y-47024364D01*
X35523302Y-47024366D01*
X35303511Y-47083258D01*
X35303502Y-47083261D01*
X35097267Y-47179431D01*
X35097265Y-47179432D01*
X34910858Y-47309954D01*
X34749954Y-47470858D01*
X34712307Y-47524625D01*
X34619881Y-47656624D01*
X34565307Y-47700248D01*
X34518308Y-47709500D01*
X32860097Y-47709500D01*
X32793058Y-47689815D01*
X32772416Y-47673181D01*
X29428102Y-44328867D01*
X29394617Y-44267544D01*
X29397851Y-44202874D01*
X29442246Y-44066243D01*
X29475500Y-43856287D01*
X29475500Y-43643713D01*
X29442246Y-43433757D01*
X29376557Y-43231588D01*
X29280051Y-43042184D01*
X29280049Y-43042181D01*
X29280048Y-43042179D01*
X29155109Y-42870213D01*
X29004792Y-42719896D01*
X28996392Y-42713793D01*
X28840204Y-42600316D01*
X28797540Y-42544989D01*
X28791561Y-42475376D01*
X28824166Y-42413580D01*
X28840199Y-42399686D01*
X29004792Y-42280104D01*
X29155104Y-42129792D01*
X29155106Y-42129788D01*
X29155109Y-42129786D01*
X29252695Y-41995468D01*
X29280051Y-41957816D01*
X29280349Y-41957230D01*
X29300235Y-41918205D01*
X29348209Y-41867409D01*
X29410719Y-41850500D01*
X30663331Y-41850500D01*
X30663347Y-41850501D01*
X30670943Y-41850501D01*
X30829054Y-41850501D01*
X30829057Y-41850501D01*
X30981785Y-41809577D01*
X31031904Y-41780639D01*
X31118716Y-41730520D01*
X31230520Y-41618716D01*
X31230520Y-41618714D01*
X31240728Y-41608507D01*
X31240729Y-41608504D01*
X34402417Y-38446819D01*
X34463740Y-38413334D01*
X34490098Y-38410500D01*
X34518308Y-38410500D01*
X34585347Y-38430185D01*
X34619880Y-38463374D01*
X34687902Y-38560520D01*
X34749954Y-38649141D01*
X34910858Y-38810045D01*
X34910861Y-38810047D01*
X35097266Y-38940568D01*
X35303504Y-39036739D01*
X35523308Y-39095635D01*
X35685230Y-39109801D01*
X35749998Y-39115468D01*
X35750000Y-39115468D01*
X35750002Y-39115468D01*
X35806673Y-39110509D01*
X35976692Y-39095635D01*
X36196496Y-39036739D01*
X36402734Y-38940568D01*
X36589139Y-38810047D01*
X36750047Y-38649139D01*
X36880568Y-38462734D01*
X36976739Y-38256496D01*
X37035635Y-38036692D01*
X37055468Y-37810000D01*
X37035635Y-37583308D01*
X36976739Y-37363504D01*
X36880568Y-37157266D01*
X36750047Y-36970861D01*
X36750045Y-36970858D01*
X36589141Y-36809954D01*
X36402734Y-36679432D01*
X36402732Y-36679431D01*
X36196497Y-36583261D01*
X36196488Y-36583258D01*
X35976697Y-36524366D01*
X35976693Y-36524365D01*
X35976692Y-36524365D01*
X35976691Y-36524364D01*
X35976686Y-36524364D01*
X35750002Y-36504532D01*
X35749998Y-36504532D01*
X35523313Y-36524364D01*
X35523302Y-36524366D01*
X35303511Y-36583258D01*
X35303502Y-36583261D01*
X35097267Y-36679431D01*
X35097265Y-36679432D01*
X34910858Y-36809954D01*
X34749954Y-36970858D01*
X34678526Y-37072870D01*
X34619881Y-37156624D01*
X34565307Y-37200248D01*
X34518308Y-37209500D01*
X34276670Y-37209500D01*
X34276654Y-37209499D01*
X34269058Y-37209499D01*
X34110943Y-37209499D01*
X34034579Y-37229961D01*
X33958214Y-37250423D01*
X33958209Y-37250426D01*
X33821290Y-37329475D01*
X33821282Y-37329481D01*
X30537584Y-40613181D01*
X30476261Y-40646666D01*
X30449903Y-40649500D01*
X29410719Y-40649500D01*
X29343680Y-40629815D01*
X29300235Y-40581795D01*
X29280052Y-40542185D01*
X29280051Y-40542184D01*
X29155109Y-40370213D01*
X29004786Y-40219890D01*
X28832820Y-40094951D01*
X28643414Y-39998444D01*
X28643413Y-39998443D01*
X28643412Y-39998443D01*
X28441243Y-39932754D01*
X28441241Y-39932753D01*
X28441240Y-39932753D01*
X28279957Y-39907208D01*
X28231287Y-39899500D01*
X27768713Y-39899500D01*
X27720042Y-39907208D01*
X27558760Y-39932753D01*
X27356585Y-39998444D01*
X27167179Y-40094951D01*
X26995213Y-40219890D01*
X26844890Y-40370213D01*
X26719951Y-40542179D01*
X26623444Y-40731585D01*
X26557753Y-40933760D01*
X26524500Y-41143713D01*
X26524500Y-41356286D01*
X26551877Y-41529141D01*
X26557754Y-41566243D01*
X26600076Y-41696497D01*
X26623444Y-41768414D01*
X26719951Y-41957820D01*
X26844890Y-42129786D01*
X26995209Y-42280105D01*
X26995214Y-42280109D01*
X27159793Y-42399682D01*
X27202459Y-42455011D01*
X27208438Y-42524625D01*
X27175833Y-42586420D01*
X27159793Y-42600318D01*
X26995214Y-42719890D01*
X26995209Y-42719894D01*
X26844890Y-42870213D01*
X26719951Y-43042179D01*
X26623444Y-43231585D01*
X26557753Y-43433760D01*
X26524500Y-43643713D01*
X26524500Y-43856287D01*
X26557754Y-44066243D01*
X26622167Y-44264486D01*
X26623444Y-44268414D01*
X26719951Y-44457820D01*
X26844890Y-44629786D01*
X26995209Y-44780105D01*
X26995214Y-44780109D01*
X27159793Y-44899682D01*
X27202459Y-44955011D01*
X27208438Y-45024625D01*
X27175833Y-45086420D01*
X27159793Y-45100318D01*
X26995214Y-45219890D01*
X26995209Y-45219894D01*
X26844890Y-45370213D01*
X26719951Y-45542179D01*
X26623444Y-45731585D01*
X26557753Y-45933760D01*
X26524500Y-46143713D01*
X26524500Y-46356286D01*
X26550852Y-46522669D01*
X26557754Y-46566243D01*
X26620501Y-46759359D01*
X26623444Y-46768414D01*
X26719951Y-46957820D01*
X26844890Y-47129786D01*
X26995209Y-47280105D01*
X26995214Y-47280109D01*
X27159793Y-47399682D01*
X27202459Y-47455011D01*
X27208438Y-47524625D01*
X27175833Y-47586420D01*
X27159793Y-47600318D01*
X26995214Y-47719890D01*
X26995209Y-47719894D01*
X26844890Y-47870213D01*
X26719951Y-48042179D01*
X26623444Y-48231585D01*
X26557753Y-48433760D01*
X26541450Y-48536697D01*
X26524500Y-48643713D01*
X26524500Y-48856287D01*
X26533087Y-48910500D01*
X26550146Y-49018213D01*
X26557754Y-49066243D01*
X26623380Y-49268219D01*
X26623444Y-49268414D01*
X26719951Y-49457820D01*
X26844890Y-49629786D01*
X26995209Y-49780105D01*
X26995214Y-49780109D01*
X27160218Y-49899991D01*
X27202884Y-49955320D01*
X27208863Y-50024934D01*
X27176258Y-50086729D01*
X27160218Y-50100627D01*
X26995540Y-50220272D01*
X26995535Y-50220276D01*
X26845276Y-50370535D01*
X26845272Y-50370540D01*
X26720379Y-50542442D01*
X26623904Y-50731782D01*
X26558242Y-50933870D01*
X26558242Y-50933873D01*
X26547769Y-51000000D01*
X27595854Y-51000000D01*
X27557370Y-51066657D01*
X27525000Y-51187465D01*
X27525000Y-51312535D01*
X27557370Y-51433343D01*
X27595854Y-51500000D01*
X26547769Y-51500000D01*
X26558242Y-51566126D01*
X26558242Y-51566129D01*
X26623904Y-51768217D01*
X26720379Y-51957557D01*
X26845272Y-52129459D01*
X26845276Y-52129464D01*
X26984143Y-52268331D01*
X27017628Y-52329654D01*
X27012644Y-52399346D01*
X26970772Y-52455279D01*
X26961559Y-52461551D01*
X26806342Y-52557289D01*
X26682289Y-52681342D01*
X26590187Y-52830663D01*
X26590186Y-52830666D01*
X26535001Y-52997203D01*
X26535001Y-52997204D01*
X26535000Y-52997204D01*
X26524500Y-53099983D01*
X26524500Y-54400001D01*
X26524501Y-54400018D01*
X26535000Y-54502796D01*
X26535001Y-54502799D01*
X26570709Y-54610556D01*
X26590186Y-54669334D01*
X26682288Y-54818656D01*
X26806344Y-54942712D01*
X26955666Y-55034814D01*
X27122203Y-55089999D01*
X27224991Y-55100500D01*
X28775008Y-55100499D01*
X28877797Y-55089999D01*
X29044334Y-55034814D01*
X29193656Y-54942712D01*
X29317712Y-54818656D01*
X29409814Y-54669334D01*
X29464999Y-54502797D01*
X29475500Y-54400009D01*
X29475499Y-53099992D01*
X29464999Y-52997203D01*
X29409814Y-52830666D01*
X29317712Y-52681344D01*
X29193656Y-52557288D01*
X29044334Y-52465186D01*
X29044332Y-52465185D01*
X29038440Y-52461551D01*
X28991716Y-52409603D01*
X28980493Y-52340641D01*
X29008337Y-52276558D01*
X29015856Y-52268330D01*
X29154728Y-52129458D01*
X29279620Y-51957557D01*
X29376095Y-51768217D01*
X29441757Y-51566129D01*
X29441757Y-51566126D01*
X29452231Y-51500000D01*
X28404146Y-51500000D01*
X28442630Y-51433343D01*
X28475000Y-51312535D01*
X28475000Y-51187465D01*
X28442630Y-51066657D01*
X28404146Y-51000000D01*
X29452231Y-51000000D01*
X29441757Y-50933873D01*
X29441757Y-50933870D01*
X29376095Y-50731782D01*
X29279620Y-50542442D01*
X29154727Y-50370540D01*
X29154723Y-50370535D01*
X29004464Y-50220276D01*
X29004459Y-50220272D01*
X28839781Y-50100627D01*
X28797115Y-50045297D01*
X28791136Y-49975684D01*
X28823741Y-49913889D01*
X28839776Y-49899994D01*
X29004792Y-49780104D01*
X29005128Y-49779767D01*
X29005289Y-49779679D01*
X29008496Y-49776941D01*
X29009070Y-49777613D01*
X29066440Y-49746268D01*
X29136133Y-49751234D01*
X29180511Y-49779746D01*
X29863181Y-50462416D01*
X29896666Y-50523739D01*
X29899500Y-50550097D01*
X29899500Y-57491465D01*
X29899499Y-57491483D01*
X29899499Y-57657189D01*
X29899498Y-57657189D01*
X29909504Y-57694532D01*
X29940423Y-57809920D01*
X29940424Y-57809922D01*
X29940423Y-57809922D01*
X29948281Y-57823531D01*
X29948282Y-57823532D01*
X30019477Y-57946847D01*
X30019481Y-57946852D01*
X30138349Y-58065720D01*
X30138355Y-58065725D01*
X32363181Y-60290551D01*
X32396666Y-60351874D01*
X32399500Y-60378232D01*
X32399500Y-64663330D01*
X32399499Y-64663348D01*
X32399499Y-64829054D01*
X32399498Y-64829054D01*
X32399499Y-64829057D01*
X32440423Y-64981785D01*
X32444191Y-64988312D01*
X32449709Y-64997870D01*
X32449711Y-64997872D01*
X32519477Y-65118712D01*
X32519481Y-65118717D01*
X32638349Y-65237585D01*
X32638355Y-65237590D01*
X35031255Y-67630490D01*
X35064740Y-67691813D01*
X35059756Y-67761505D01*
X35017884Y-67817438D01*
X35014697Y-67819746D01*
X34910859Y-67892453D01*
X34749954Y-68053358D01*
X34619432Y-68239765D01*
X34619431Y-68239767D01*
X34523261Y-68446002D01*
X34523258Y-68446011D01*
X34464366Y-68665802D01*
X34464364Y-68665813D01*
X34444532Y-68892498D01*
X34444532Y-68892501D01*
X34464364Y-69119186D01*
X34464366Y-69119197D01*
X34523258Y-69338988D01*
X34523261Y-69338997D01*
X34619431Y-69545232D01*
X34619432Y-69545234D01*
X34749954Y-69731641D01*
X34910858Y-69892545D01*
X34910861Y-69892547D01*
X35097266Y-70023068D01*
X35303504Y-70119239D01*
X35523308Y-70178135D01*
X35685230Y-70192301D01*
X35749998Y-70197968D01*
X35750000Y-70197968D01*
X35750002Y-70197968D01*
X35806673Y-70193009D01*
X35976692Y-70178135D01*
X36196496Y-70119239D01*
X36402734Y-70023068D01*
X36589139Y-69892547D01*
X36750047Y-69731639D01*
X36880568Y-69545234D01*
X36976739Y-69338996D01*
X37035635Y-69119192D01*
X37055468Y-68892500D01*
X37054763Y-68884447D01*
X37049023Y-68818838D01*
X37035635Y-68665808D01*
X36976739Y-68446004D01*
X36880568Y-68239766D01*
X36750047Y-68053361D01*
X36750045Y-68053358D01*
X36589140Y-67892453D01*
X36403377Y-67762381D01*
X36359752Y-67707804D01*
X36350500Y-67660806D01*
X36350500Y-67420945D01*
X36350498Y-67420936D01*
X36345023Y-67400500D01*
X36309577Y-67268215D01*
X36266259Y-67193186D01*
X36230520Y-67131284D01*
X36118716Y-67019480D01*
X36118715Y-67019479D01*
X36114385Y-67015149D01*
X36114374Y-67015139D01*
X33636819Y-64537584D01*
X33603334Y-64476261D01*
X33600500Y-64449903D01*
X33600500Y-60167194D01*
X33600501Y-60167181D01*
X33600501Y-59999080D01*
X33600501Y-59999078D01*
X33559577Y-59846350D01*
X33530639Y-59796230D01*
X33480520Y-59709419D01*
X33368716Y-59597615D01*
X33368715Y-59597614D01*
X33364385Y-59593284D01*
X33364374Y-59593274D01*
X31136819Y-57365719D01*
X31103334Y-57304396D01*
X31100500Y-57278038D01*
X31100500Y-55499097D01*
X31120185Y-55432058D01*
X31172989Y-55386303D01*
X31242147Y-55376359D01*
X31305703Y-55405384D01*
X31312181Y-55411416D01*
X34458058Y-58557293D01*
X34491543Y-58618616D01*
X34490152Y-58677067D01*
X34464366Y-58773302D01*
X34464364Y-58773313D01*
X34444532Y-58999998D01*
X34444532Y-59000001D01*
X34464364Y-59226686D01*
X34464366Y-59226697D01*
X34523258Y-59446488D01*
X34523261Y-59446497D01*
X34619431Y-59652732D01*
X34619432Y-59652734D01*
X34749954Y-59839141D01*
X34910858Y-60000045D01*
X34960315Y-60034675D01*
X35003940Y-60089251D01*
X35011134Y-60158750D01*
X34979612Y-60221105D01*
X34960315Y-60237825D01*
X34910858Y-60272454D01*
X34749954Y-60433358D01*
X34619432Y-60619765D01*
X34619431Y-60619767D01*
X34523261Y-60826002D01*
X34523258Y-60826011D01*
X34464366Y-61045802D01*
X34464364Y-61045813D01*
X34444532Y-61272498D01*
X34444532Y-61272501D01*
X34464364Y-61499186D01*
X34464366Y-61499197D01*
X34523258Y-61718988D01*
X34523261Y-61718997D01*
X34619431Y-61925232D01*
X34619432Y-61925234D01*
X34749954Y-62111641D01*
X34910858Y-62272545D01*
X34919828Y-62278826D01*
X35097266Y-62403068D01*
X35303504Y-62499239D01*
X35523308Y-62558135D01*
X35685230Y-62572301D01*
X35749998Y-62577968D01*
X35750000Y-62577968D01*
X35750002Y-62577968D01*
X35806673Y-62573009D01*
X35976692Y-62558135D01*
X36196496Y-62499239D01*
X36402734Y-62403068D01*
X36589139Y-62272547D01*
X36750047Y-62111639D01*
X36880118Y-61925875D01*
X36934693Y-61882252D01*
X36981692Y-61873000D01*
X37024450Y-61873000D01*
X37091489Y-61892685D01*
X37137244Y-61945489D01*
X37147978Y-61986192D01*
X37154364Y-62059187D01*
X37154366Y-62059197D01*
X37213258Y-62278988D01*
X37213261Y-62278997D01*
X37309431Y-62485232D01*
X37309432Y-62485234D01*
X37439954Y-62671641D01*
X37600859Y-62832546D01*
X37788527Y-62963952D01*
X37832152Y-63018529D01*
X37836610Y-63035286D01*
X37837396Y-63035076D01*
X37839499Y-63042924D01*
X37839499Y-63042927D01*
X37855364Y-63102135D01*
X37880423Y-63195657D01*
X37880425Y-63195660D01*
X37902574Y-63234022D01*
X37902575Y-63234024D01*
X37959475Y-63332579D01*
X37959481Y-63332587D01*
X38078349Y-63451455D01*
X38078354Y-63451459D01*
X41045682Y-66418788D01*
X41079166Y-66480109D01*
X41082000Y-66506467D01*
X41082000Y-66683507D01*
X41121407Y-66881619D01*
X41121409Y-66881627D01*
X41154825Y-66962300D01*
X41162294Y-67031770D01*
X41142538Y-67077160D01*
X41142954Y-67077387D01*
X41140419Y-67082028D01*
X41139537Y-67084056D01*
X41138706Y-67085165D01*
X41138702Y-67085172D01*
X41088408Y-67220017D01*
X41083227Y-67268213D01*
X41082001Y-67279623D01*
X41082000Y-67279635D01*
X41082000Y-68425370D01*
X41082001Y-68425376D01*
X41088408Y-68484983D01*
X41138702Y-68619828D01*
X41138706Y-68619835D01*
X41224952Y-68735044D01*
X41224955Y-68735047D01*
X41340164Y-68821293D01*
X41340171Y-68821297D01*
X41475017Y-68871591D01*
X41475016Y-68871591D01*
X41481944Y-68872335D01*
X41534627Y-68878000D01*
X42457402Y-68877999D01*
X42524441Y-68897683D01*
X42545083Y-68914318D01*
X43575139Y-69944374D01*
X43575149Y-69944385D01*
X43579479Y-69948715D01*
X43579480Y-69948716D01*
X43691284Y-70060520D01*
X43740415Y-70088885D01*
X43778095Y-70110639D01*
X43778097Y-70110641D01*
X43792993Y-70119241D01*
X43828215Y-70139577D01*
X43980943Y-70180501D01*
X43980946Y-70180501D01*
X44146653Y-70180501D01*
X44146669Y-70180500D01*
X47324633Y-70180500D01*
X47391672Y-70200185D01*
X47430361Y-70239711D01*
X47451160Y-70273653D01*
X47451161Y-70273656D01*
X47469364Y-70294968D01*
X47497935Y-70358730D01*
X47487498Y-70427815D01*
X47441367Y-70480291D01*
X47375074Y-70499500D01*
X29003051Y-70499500D01*
X28996968Y-70499351D01*
X28976900Y-70498365D01*
X28663071Y-70482947D01*
X28650962Y-70481754D01*
X28323305Y-70433151D01*
X28311369Y-70430777D01*
X27990055Y-70350292D01*
X27978411Y-70346759D01*
X27666540Y-70235170D01*
X27655301Y-70230515D01*
X27355844Y-70088883D01*
X27345121Y-70083150D01*
X27113586Y-69944374D01*
X27061011Y-69912862D01*
X27050893Y-69906102D01*
X26784829Y-69708775D01*
X26775423Y-69701055D01*
X26643126Y-69581148D01*
X26529986Y-69478604D01*
X26521395Y-69470013D01*
X26298944Y-69224576D01*
X26291224Y-69215170D01*
X26284646Y-69206300D01*
X26093895Y-68949103D01*
X26087137Y-68938988D01*
X25916844Y-68654871D01*
X25911120Y-68644163D01*
X25769479Y-68344688D01*
X25764829Y-68333459D01*
X25725212Y-68222738D01*
X25674552Y-68081151D01*
X25653240Y-68021588D01*
X25649707Y-68009944D01*
X25622051Y-67899534D01*
X25569219Y-67688617D01*
X25566848Y-67676694D01*
X25564491Y-67660806D01*
X25523980Y-67387702D01*
X25518245Y-67349037D01*
X25517052Y-67336927D01*
X25514237Y-67279635D01*
X25500649Y-67003032D01*
X25500500Y-66996948D01*
X25500500Y-66878711D01*
X27149500Y-66878711D01*
X27149500Y-67121288D01*
X27181161Y-67361785D01*
X27243947Y-67596104D01*
X27329699Y-67803126D01*
X27336776Y-67820212D01*
X27458064Y-68030289D01*
X27458066Y-68030292D01*
X27458067Y-68030293D01*
X27605733Y-68222736D01*
X27605739Y-68222743D01*
X27777256Y-68394260D01*
X27777263Y-68394266D01*
X27817807Y-68425376D01*
X27969711Y-68541936D01*
X28179788Y-68663224D01*
X28403900Y-68756054D01*
X28638211Y-68818838D01*
X28818586Y-68842584D01*
X28878711Y-68850500D01*
X28878712Y-68850500D01*
X29121289Y-68850500D01*
X29169388Y-68844167D01*
X29361789Y-68818838D01*
X29596100Y-68756054D01*
X29820212Y-68663224D01*
X30030289Y-68541936D01*
X30222738Y-68394265D01*
X30394265Y-68222738D01*
X30541936Y-68030289D01*
X30663224Y-67820212D01*
X30756054Y-67596100D01*
X30818838Y-67361789D01*
X30850500Y-67121288D01*
X30850500Y-66878712D01*
X30818838Y-66638211D01*
X30756054Y-66403900D01*
X30663224Y-66179788D01*
X30541936Y-65969711D01*
X30410189Y-65798015D01*
X30394266Y-65777263D01*
X30394260Y-65777256D01*
X30222743Y-65605739D01*
X30222736Y-65605733D01*
X30030293Y-65458067D01*
X30030292Y-65458066D01*
X30030289Y-65458064D01*
X29820212Y-65336776D01*
X29749647Y-65307547D01*
X29596104Y-65243947D01*
X29361785Y-65181161D01*
X29121289Y-65149500D01*
X29121288Y-65149500D01*
X28878712Y-65149500D01*
X28878711Y-65149500D01*
X28638214Y-65181161D01*
X28403895Y-65243947D01*
X28179794Y-65336773D01*
X28179785Y-65336777D01*
X27969706Y-65458067D01*
X27777263Y-65605733D01*
X27777256Y-65605739D01*
X27605739Y-65777256D01*
X27605733Y-65777263D01*
X27458067Y-65969706D01*
X27336777Y-66179785D01*
X27336773Y-66179794D01*
X27243947Y-66403895D01*
X27181161Y-66638214D01*
X27149500Y-66878711D01*
X25500500Y-66878711D01*
X25500500Y-29003051D01*
X25500649Y-28996967D01*
X25506458Y-28878712D01*
X25506458Y-28878711D01*
X27149500Y-28878711D01*
X27149500Y-29121288D01*
X27181161Y-29361785D01*
X27243947Y-29596104D01*
X27305005Y-29743511D01*
X27336776Y-29820212D01*
X27458064Y-30030289D01*
X27458066Y-30030292D01*
X27458067Y-30030293D01*
X27605733Y-30222736D01*
X27605739Y-30222743D01*
X27777256Y-30394260D01*
X27777263Y-30394266D01*
X27890321Y-30481018D01*
X27969711Y-30541936D01*
X28179788Y-30663224D01*
X28403900Y-30756054D01*
X28638211Y-30818838D01*
X28818586Y-30842584D01*
X28878711Y-30850500D01*
X28878712Y-30850500D01*
X29121289Y-30850500D01*
X29169388Y-30844167D01*
X29361789Y-30818838D01*
X29596100Y-30756054D01*
X29820212Y-30663224D01*
X30030289Y-30541936D01*
X30222738Y-30394265D01*
X30394265Y-30222738D01*
X30419387Y-30189998D01*
X34444532Y-30189998D01*
X34444532Y-30190001D01*
X34464364Y-30416686D01*
X34464366Y-30416697D01*
X34523258Y-30636488D01*
X34523261Y-30636497D01*
X34619431Y-30842732D01*
X34619432Y-30842734D01*
X34749954Y-31029141D01*
X34910858Y-31190045D01*
X34919828Y-31196326D01*
X35097266Y-31320568D01*
X35303504Y-31416739D01*
X35523308Y-31475635D01*
X35685230Y-31489801D01*
X35749998Y-31495468D01*
X35750000Y-31495468D01*
X35750002Y-31495468D01*
X35806673Y-31490509D01*
X35976692Y-31475635D01*
X36196496Y-31416739D01*
X36402734Y-31320568D01*
X36589139Y-31190047D01*
X36750047Y-31029139D01*
X36880118Y-30843375D01*
X36934693Y-30799752D01*
X36981692Y-30790500D01*
X37024450Y-30790500D01*
X37091489Y-30810185D01*
X37137244Y-30862989D01*
X37147978Y-30903692D01*
X37154364Y-30976687D01*
X37154366Y-30976697D01*
X37213258Y-31196488D01*
X37213261Y-31196497D01*
X37309431Y-31402732D01*
X37309432Y-31402734D01*
X37439954Y-31589141D01*
X37600859Y-31750046D01*
X37788527Y-31881452D01*
X37832152Y-31936029D01*
X37836610Y-31952786D01*
X37837396Y-31952576D01*
X37839499Y-31960424D01*
X37839499Y-31960427D01*
X37857839Y-32028871D01*
X37880423Y-32113155D01*
X37909358Y-32163270D01*
X37909359Y-32163274D01*
X37909360Y-32163274D01*
X37959479Y-32250084D01*
X37959481Y-32250087D01*
X38078349Y-32368955D01*
X38078355Y-32368960D01*
X41065731Y-35356336D01*
X41099216Y-35417659D01*
X41099667Y-35419826D01*
X41121407Y-35529119D01*
X41121409Y-35529127D01*
X41154825Y-35609800D01*
X41162294Y-35679270D01*
X41142538Y-35724660D01*
X41142954Y-35724887D01*
X41140419Y-35729528D01*
X41139537Y-35731556D01*
X41138706Y-35732665D01*
X41138702Y-35732672D01*
X41088408Y-35867517D01*
X41082001Y-35927116D01*
X41082000Y-35927135D01*
X41082000Y-37072870D01*
X41082001Y-37072876D01*
X41088408Y-37132483D01*
X41138702Y-37267328D01*
X41138706Y-37267335D01*
X41224952Y-37382544D01*
X41224955Y-37382547D01*
X41340164Y-37468793D01*
X41340171Y-37468797D01*
X41475017Y-37519091D01*
X41475016Y-37519091D01*
X41481944Y-37519835D01*
X41534627Y-37525500D01*
X43130372Y-37525499D01*
X43189983Y-37519091D01*
X43324831Y-37468796D01*
X43440046Y-37382546D01*
X43526296Y-37267331D01*
X43547866Y-37209499D01*
X43558434Y-37181166D01*
X43600306Y-37125233D01*
X43665770Y-37100816D01*
X43674616Y-37100500D01*
X46869903Y-37100500D01*
X46936942Y-37120185D01*
X46957584Y-37136819D01*
X47217707Y-37396942D01*
X47251192Y-37458265D01*
X47246208Y-37527957D01*
X47244588Y-37532073D01*
X47223127Y-37583886D01*
X47223127Y-37583887D01*
X47164317Y-37828848D01*
X47144551Y-38080000D01*
X47164317Y-38331151D01*
X47223126Y-38576110D01*
X47319533Y-38808859D01*
X47451160Y-39023653D01*
X47451161Y-39023656D01*
X47614778Y-39215226D01*
X47773995Y-39351210D01*
X47812189Y-39409716D01*
X47812688Y-39479584D01*
X47775334Y-39538631D01*
X47711987Y-39568109D01*
X47693465Y-39569500D01*
X47602130Y-39569500D01*
X47602123Y-39569501D01*
X47542516Y-39575908D01*
X47407671Y-39626202D01*
X47407664Y-39626206D01*
X47292455Y-39712452D01*
X47292452Y-39712455D01*
X47206206Y-39827664D01*
X47206202Y-39827671D01*
X47155908Y-39962517D01*
X47152046Y-39998443D01*
X47149501Y-40022123D01*
X47149500Y-40022135D01*
X47149500Y-40201660D01*
X47129815Y-40268699D01*
X47077011Y-40314454D01*
X47007853Y-40324398D01*
X46944297Y-40295373D01*
X46937819Y-40289341D01*
X46898820Y-40250342D01*
X46712482Y-40119865D01*
X46506328Y-40023734D01*
X46310000Y-39971127D01*
X46310000Y-40934314D01*
X46305606Y-40929920D01*
X46214394Y-40877259D01*
X46112661Y-40850000D01*
X46007339Y-40850000D01*
X45905606Y-40877259D01*
X45814394Y-40929920D01*
X45810000Y-40934314D01*
X45810000Y-39971127D01*
X45613671Y-40023734D01*
X45407517Y-40119865D01*
X45221179Y-40250342D01*
X45060342Y-40411179D01*
X44929865Y-40597517D01*
X44833734Y-40803673D01*
X44833730Y-40803682D01*
X44781127Y-40999999D01*
X44781128Y-41000000D01*
X45744314Y-41000000D01*
X45739920Y-41004394D01*
X45687259Y-41095606D01*
X45660000Y-41197339D01*
X45660000Y-41302661D01*
X45687259Y-41404394D01*
X45739920Y-41495606D01*
X45744314Y-41500000D01*
X44781128Y-41500000D01*
X44833730Y-41696317D01*
X44833734Y-41696326D01*
X44929865Y-41902482D01*
X45060342Y-42088820D01*
X45221179Y-42249657D01*
X45407517Y-42380134D01*
X45613673Y-42476265D01*
X45613682Y-42476269D01*
X45809999Y-42528872D01*
X45810000Y-42528871D01*
X45810000Y-41565686D01*
X45814394Y-41570080D01*
X45905606Y-41622741D01*
X46007339Y-41650000D01*
X46112661Y-41650000D01*
X46214394Y-41622741D01*
X46305606Y-41570080D01*
X46310000Y-41565686D01*
X46310000Y-42528872D01*
X46506317Y-42476269D01*
X46506326Y-42476265D01*
X46712482Y-42380134D01*
X46898819Y-42249658D01*
X46937818Y-42210659D01*
X46999140Y-42177173D01*
X47068832Y-42182157D01*
X47124766Y-42224027D01*
X47149184Y-42289491D01*
X47149500Y-42298334D01*
X47149500Y-42317867D01*
X47149501Y-42317876D01*
X47155908Y-42377483D01*
X47206202Y-42512328D01*
X47206206Y-42512335D01*
X47292452Y-42627544D01*
X47292455Y-42627547D01*
X47407664Y-42713793D01*
X47407671Y-42713797D01*
X47542517Y-42764091D01*
X47542516Y-42764091D01*
X47549444Y-42764835D01*
X47602127Y-42770500D01*
X49897872Y-42770499D01*
X49957483Y-42764091D01*
X50092331Y-42713796D01*
X50207546Y-42627546D01*
X50293796Y-42512331D01*
X50344091Y-42377483D01*
X50350500Y-42317873D01*
X50350499Y-40352135D01*
X50599500Y-40352135D01*
X50599500Y-42247870D01*
X50599501Y-42247876D01*
X50605908Y-42307483D01*
X50656202Y-42442328D01*
X50656206Y-42442335D01*
X50742452Y-42557544D01*
X50742455Y-42557547D01*
X50857664Y-42643793D01*
X50857671Y-42643797D01*
X50992517Y-42694091D01*
X50992516Y-42694091D01*
X50999444Y-42694835D01*
X51052127Y-42700500D01*
X52947872Y-42700499D01*
X53007483Y-42694091D01*
X53142331Y-42643796D01*
X53257546Y-42557546D01*
X53343796Y-42442331D01*
X53394091Y-42307483D01*
X53400500Y-42247873D01*
X53400499Y-40352128D01*
X53394091Y-40292517D01*
X53392906Y-40289341D01*
X53343797Y-40157671D01*
X53343793Y-40157664D01*
X53257547Y-40042455D01*
X53257544Y-40042452D01*
X53142335Y-39956206D01*
X53142328Y-39956202D01*
X53007482Y-39905908D01*
X53007483Y-39905908D01*
X52947883Y-39899501D01*
X52947881Y-39899500D01*
X52947873Y-39899500D01*
X52947864Y-39899500D01*
X51052129Y-39899500D01*
X51052123Y-39899501D01*
X50992516Y-39905908D01*
X50857671Y-39956202D01*
X50857664Y-39956206D01*
X50742455Y-40042452D01*
X50742452Y-40042455D01*
X50656206Y-40157664D01*
X50656202Y-40157671D01*
X50605908Y-40292517D01*
X50603550Y-40314454D01*
X50599501Y-40352123D01*
X50599500Y-40352135D01*
X50350499Y-40352135D01*
X50350499Y-40022128D01*
X50344091Y-39962517D01*
X50341737Y-39956206D01*
X50293797Y-39827671D01*
X50293793Y-39827664D01*
X50207547Y-39712455D01*
X50207544Y-39712452D01*
X50092335Y-39626206D01*
X50092328Y-39626202D01*
X49957482Y-39575908D01*
X49957483Y-39575908D01*
X49897883Y-39569501D01*
X49897881Y-39569500D01*
X49897873Y-39569500D01*
X49897865Y-39569500D01*
X49806536Y-39569500D01*
X49739497Y-39549815D01*
X49693742Y-39497011D01*
X49683798Y-39427853D01*
X49712823Y-39364297D01*
X49726005Y-39351210D01*
X49749946Y-39330762D01*
X49885224Y-39215224D01*
X50048836Y-39023659D01*
X50180466Y-38808859D01*
X50201927Y-38757048D01*
X50245767Y-38702644D01*
X50312061Y-38680579D01*
X50316488Y-38680500D01*
X50418331Y-38680500D01*
X50418347Y-38680501D01*
X50425943Y-38680501D01*
X50584054Y-38680501D01*
X50584057Y-38680501D01*
X50736785Y-38639577D01*
X50736787Y-38639575D01*
X50736789Y-38639575D01*
X50736790Y-38639574D01*
X50791454Y-38608014D01*
X50791455Y-38608013D01*
X50873716Y-38560520D01*
X50985520Y-38448716D01*
X50985520Y-38448714D01*
X50995724Y-38438511D01*
X50995727Y-38438506D01*
X51392660Y-38041573D01*
X51453982Y-38008090D01*
X51520602Y-38011974D01*
X51550849Y-38022358D01*
X51572518Y-38029798D01*
X51686985Y-38048899D01*
X51801451Y-38068000D01*
X51801452Y-38068000D01*
X52033548Y-38068000D01*
X52033549Y-38068000D01*
X52262481Y-38029798D01*
X52482003Y-37954436D01*
X52686126Y-37843970D01*
X52869284Y-37701413D01*
X53026479Y-37530653D01*
X53153424Y-37336349D01*
X53246657Y-37123800D01*
X53303634Y-36898805D01*
X53303635Y-36898797D01*
X53322800Y-36667506D01*
X53322800Y-36667493D01*
X53303635Y-36436202D01*
X53303633Y-36436191D01*
X53246657Y-36211199D01*
X53153424Y-35998651D01*
X53026483Y-35804352D01*
X53026480Y-35804349D01*
X53026479Y-35804347D01*
X52869284Y-35633587D01*
X52869279Y-35633583D01*
X52869277Y-35633581D01*
X52686134Y-35491035D01*
X52686128Y-35491031D01*
X52482004Y-35380564D01*
X52481995Y-35380561D01*
X52262484Y-35305202D01*
X52090782Y-35276550D01*
X52033549Y-35267000D01*
X51801451Y-35267000D01*
X51755664Y-35274640D01*
X51572515Y-35305202D01*
X51353004Y-35380561D01*
X51352995Y-35380564D01*
X51148871Y-35491031D01*
X51148865Y-35491035D01*
X50965722Y-35633581D01*
X50965719Y-35633584D01*
X50808516Y-35804352D01*
X50681575Y-35998651D01*
X50588342Y-36211199D01*
X50531366Y-36436191D01*
X50531364Y-36436202D01*
X50512200Y-36667493D01*
X50512200Y-36667506D01*
X50531364Y-36898797D01*
X50531366Y-36898809D01*
X50575819Y-37074348D01*
X50573194Y-37144168D01*
X50543294Y-37192469D01*
X50369261Y-37366503D01*
X50307938Y-37399988D01*
X50238247Y-37395004D01*
X50182313Y-37353133D01*
X50175853Y-37343612D01*
X50048839Y-37136346D01*
X50048838Y-37136343D01*
X49994628Y-37072872D01*
X49885224Y-36944776D01*
X49727367Y-36809953D01*
X49693656Y-36781161D01*
X49693653Y-36781160D01*
X49478859Y-36649533D01*
X49246110Y-36553126D01*
X49001151Y-36494317D01*
X48750000Y-36474551D01*
X48498848Y-36494317D01*
X48253887Y-36553127D01*
X48253886Y-36553127D01*
X48202073Y-36574588D01*
X48132604Y-36582055D01*
X48070125Y-36550779D01*
X48066942Y-36547707D01*
X47657590Y-36138355D01*
X47657588Y-36138352D01*
X47538717Y-36019481D01*
X47538716Y-36019480D01*
X47451904Y-35969360D01*
X47451904Y-35969359D01*
X47451900Y-35969358D01*
X47401785Y-35940423D01*
X47249057Y-35899499D01*
X47090943Y-35899499D01*
X47083347Y-35899499D01*
X47083331Y-35899500D01*
X43674615Y-35899500D01*
X43607576Y-35879815D01*
X43561821Y-35827011D01*
X43558433Y-35818833D01*
X43526297Y-35732671D01*
X43526296Y-35732670D01*
X43526296Y-35732669D01*
X43525467Y-35731562D01*
X43524985Y-35730268D01*
X43522046Y-35724886D01*
X43522819Y-35724463D01*
X43501051Y-35666099D01*
X43510175Y-35609798D01*
X43543589Y-35529132D01*
X43543589Y-35529131D01*
X43543591Y-35529127D01*
X43583000Y-35331003D01*
X43583000Y-35128997D01*
X43543591Y-34930873D01*
X43466286Y-34744244D01*
X43412294Y-34663439D01*
X43391417Y-34596764D01*
X43409901Y-34529384D01*
X43412296Y-34525658D01*
X43465844Y-34445518D01*
X43465846Y-34445515D01*
X43543109Y-34258983D01*
X43543112Y-34258974D01*
X43552853Y-34210000D01*
X42698366Y-34210000D01*
X42674174Y-34207617D01*
X42658504Y-34204500D01*
X42658503Y-34204500D01*
X42618330Y-34204500D01*
X42632575Y-34190255D01*
X42681944Y-34104745D01*
X42707500Y-34009370D01*
X42707500Y-33910630D01*
X42681944Y-33815255D01*
X42632575Y-33729745D01*
X42612830Y-33710000D01*
X43552853Y-33710000D01*
X43543112Y-33661025D01*
X43543109Y-33661016D01*
X43465847Y-33474486D01*
X43465840Y-33474473D01*
X43353670Y-33306600D01*
X43353667Y-33306596D01*
X43210903Y-33163832D01*
X43210899Y-33163829D01*
X43043026Y-33051659D01*
X43043013Y-33051652D01*
X42856483Y-32974390D01*
X42856474Y-32974387D01*
X42658458Y-32935000D01*
X42582500Y-32935000D01*
X42582500Y-33679670D01*
X42562755Y-33659925D01*
X42477245Y-33610556D01*
X42381870Y-33585000D01*
X42283130Y-33585000D01*
X42187755Y-33610556D01*
X42102245Y-33659925D01*
X42082500Y-33679670D01*
X42082500Y-32935000D01*
X42006541Y-32935000D01*
X41808525Y-32974387D01*
X41808516Y-32974390D01*
X41621986Y-33051652D01*
X41621973Y-33051659D01*
X41454100Y-33163829D01*
X41454096Y-33163832D01*
X41311332Y-33306596D01*
X41311329Y-33306600D01*
X41199159Y-33474473D01*
X41199152Y-33474486D01*
X41177382Y-33527046D01*
X41133541Y-33581450D01*
X41067247Y-33603515D01*
X40999548Y-33586236D01*
X40975140Y-33567275D01*
X39306207Y-31898342D01*
X39272722Y-31837019D01*
X39277706Y-31767327D01*
X39306207Y-31722980D01*
X39440045Y-31589141D01*
X39440047Y-31589139D01*
X39570568Y-31402734D01*
X39666739Y-31196496D01*
X39725635Y-30976692D01*
X39745468Y-30750000D01*
X39725635Y-30523308D01*
X39719389Y-30499999D01*
X44781127Y-30499999D01*
X44781128Y-30500000D01*
X45744314Y-30500000D01*
X45739920Y-30504394D01*
X45687259Y-30595606D01*
X45660000Y-30697339D01*
X45660000Y-30802661D01*
X45687259Y-30904394D01*
X45739920Y-30995606D01*
X45744314Y-31000000D01*
X44781128Y-31000000D01*
X44833730Y-31196317D01*
X44833734Y-31196326D01*
X44929865Y-31402482D01*
X45060342Y-31588820D01*
X45221179Y-31749657D01*
X45407517Y-31880134D01*
X45613673Y-31976265D01*
X45613682Y-31976269D01*
X45809999Y-32028872D01*
X45810000Y-32028871D01*
X45810000Y-31065686D01*
X45814394Y-31070080D01*
X45905606Y-31122741D01*
X46007339Y-31150000D01*
X46112661Y-31150000D01*
X46214394Y-31122741D01*
X46305606Y-31070080D01*
X46310000Y-31065686D01*
X46310000Y-32028872D01*
X46506317Y-31976269D01*
X46506326Y-31976265D01*
X46712482Y-31880134D01*
X46898820Y-31749657D01*
X47059657Y-31588820D01*
X47190134Y-31402482D01*
X47286265Y-31196326D01*
X47286269Y-31196317D01*
X47333611Y-31019635D01*
X50517000Y-31019635D01*
X50517000Y-32915370D01*
X50517001Y-32915376D01*
X50523408Y-32974983D01*
X50573702Y-33109828D01*
X50573706Y-33109835D01*
X50659952Y-33225044D01*
X50659955Y-33225047D01*
X50775164Y-33311293D01*
X50775171Y-33311297D01*
X50910017Y-33361591D01*
X50910016Y-33361591D01*
X50916944Y-33362335D01*
X50969627Y-33368000D01*
X52865372Y-33367999D01*
X52924983Y-33361591D01*
X53059831Y-33311296D01*
X53175046Y-33225046D01*
X53261296Y-33109831D01*
X53311591Y-32974983D01*
X53318000Y-32915373D01*
X53317999Y-31019628D01*
X53311591Y-30960017D01*
X53267847Y-30842734D01*
X53261297Y-30825171D01*
X53261293Y-30825164D01*
X53175047Y-30709955D01*
X53175044Y-30709952D01*
X53059835Y-30623706D01*
X53059828Y-30623702D01*
X52924982Y-30573408D01*
X52924983Y-30573408D01*
X52865383Y-30567001D01*
X52865381Y-30567000D01*
X52865373Y-30567000D01*
X52865364Y-30567000D01*
X50969629Y-30567000D01*
X50969623Y-30567001D01*
X50910016Y-30573408D01*
X50775171Y-30623702D01*
X50775164Y-30623706D01*
X50659955Y-30709952D01*
X50659952Y-30709955D01*
X50573706Y-30825164D01*
X50573702Y-30825171D01*
X50523408Y-30960017D01*
X50519110Y-31000000D01*
X50517001Y-31019623D01*
X50517000Y-31019635D01*
X47333611Y-31019635D01*
X47338872Y-31000000D01*
X46375686Y-31000000D01*
X46380080Y-30995606D01*
X46432741Y-30904394D01*
X46460000Y-30802661D01*
X46460000Y-30697339D01*
X46432741Y-30595606D01*
X46380080Y-30504394D01*
X46375686Y-30500000D01*
X47338872Y-30500000D01*
X47338872Y-30499999D01*
X47286269Y-30303682D01*
X47286265Y-30303673D01*
X47190134Y-30097517D01*
X47059657Y-29911179D01*
X46898820Y-29750342D01*
X46712482Y-29619865D01*
X46506328Y-29523734D01*
X46310000Y-29471127D01*
X46310000Y-30434314D01*
X46305606Y-30429920D01*
X46214394Y-30377259D01*
X46112661Y-30350000D01*
X46007339Y-30350000D01*
X45905606Y-30377259D01*
X45814394Y-30429920D01*
X45810000Y-30434314D01*
X45810000Y-29471127D01*
X45613671Y-29523734D01*
X45407517Y-29619865D01*
X45221179Y-29750342D01*
X45060342Y-29911179D01*
X44929865Y-30097517D01*
X44833734Y-30303673D01*
X44833730Y-30303682D01*
X44781127Y-30499999D01*
X39719389Y-30499999D01*
X39666739Y-30303504D01*
X39570568Y-30097266D01*
X39440047Y-29910861D01*
X39440045Y-29910858D01*
X39279141Y-29749954D01*
X39092734Y-29619432D01*
X39092732Y-29619431D01*
X38886497Y-29523261D01*
X38886488Y-29523258D01*
X38666697Y-29464366D01*
X38666693Y-29464365D01*
X38666692Y-29464365D01*
X38666691Y-29464364D01*
X38666686Y-29464364D01*
X38440002Y-29444532D01*
X38439998Y-29444532D01*
X38213313Y-29464364D01*
X38213302Y-29464366D01*
X37993511Y-29523258D01*
X37993504Y-29523260D01*
X37993504Y-29523261D01*
X37963471Y-29537266D01*
X37876372Y-29577881D01*
X37823967Y-29589499D01*
X37793347Y-29589499D01*
X37793331Y-29589500D01*
X36981692Y-29589500D01*
X36914653Y-29569815D01*
X36880119Y-29536625D01*
X36750047Y-29350861D01*
X36750045Y-29350858D01*
X36589141Y-29189954D01*
X36402734Y-29059432D01*
X36402732Y-29059431D01*
X36196497Y-28963261D01*
X36196488Y-28963258D01*
X35976697Y-28904366D01*
X35976693Y-28904365D01*
X35976692Y-28904365D01*
X35976691Y-28904364D01*
X35976686Y-28904364D01*
X35750002Y-28884532D01*
X35749998Y-28884532D01*
X35523313Y-28904364D01*
X35523302Y-28904366D01*
X35303511Y-28963258D01*
X35303502Y-28963261D01*
X35097267Y-29059431D01*
X35097265Y-29059432D01*
X34910858Y-29189954D01*
X34749954Y-29350858D01*
X34619432Y-29537265D01*
X34619431Y-29537267D01*
X34523261Y-29743502D01*
X34523258Y-29743511D01*
X34464366Y-29963302D01*
X34464364Y-29963313D01*
X34444532Y-30189998D01*
X30419387Y-30189998D01*
X30541936Y-30030289D01*
X30663224Y-29820212D01*
X30756054Y-29596100D01*
X30818838Y-29361789D01*
X30850500Y-29121288D01*
X30850500Y-28878712D01*
X30818838Y-28638211D01*
X30756054Y-28403900D01*
X30663224Y-28179788D01*
X30541936Y-27969711D01*
X30394265Y-27777262D01*
X30394260Y-27777256D01*
X30222743Y-27605739D01*
X30222736Y-27605733D01*
X30030293Y-27458067D01*
X30030292Y-27458066D01*
X30030289Y-27458064D01*
X29820212Y-27336776D01*
X29820205Y-27336773D01*
X29596104Y-27243947D01*
X29361785Y-27181161D01*
X29121289Y-27149500D01*
X29121288Y-27149500D01*
X28878712Y-27149500D01*
X28878711Y-27149500D01*
X28638214Y-27181161D01*
X28403895Y-27243947D01*
X28179794Y-27336773D01*
X28179785Y-27336777D01*
X27969706Y-27458067D01*
X27777263Y-27605733D01*
X27777256Y-27605739D01*
X27605739Y-27777256D01*
X27605733Y-27777263D01*
X27458067Y-27969706D01*
X27336777Y-28179785D01*
X27336773Y-28179794D01*
X27243947Y-28403895D01*
X27181161Y-28638214D01*
X27149500Y-28878711D01*
X25506458Y-28878711D01*
X25517052Y-28663068D01*
X25518245Y-28650962D01*
X25520136Y-28638211D01*
X25566849Y-28323296D01*
X25569218Y-28311385D01*
X25649710Y-27990043D01*
X25653240Y-27978411D01*
X25725212Y-27777263D01*
X25764835Y-27666525D01*
X25769476Y-27655318D01*
X25911124Y-27355828D01*
X25916840Y-27345136D01*
X26087145Y-27060998D01*
X26093888Y-27050905D01*
X26291232Y-26784818D01*
X26298935Y-26775433D01*
X26301924Y-26772135D01*
X47149500Y-26772135D01*
X47149500Y-29067870D01*
X47149501Y-29067876D01*
X47155908Y-29127483D01*
X47206202Y-29262328D01*
X47206206Y-29262335D01*
X47292452Y-29377544D01*
X47292455Y-29377547D01*
X47407664Y-29463793D01*
X47407671Y-29463797D01*
X47542517Y-29514091D01*
X47542516Y-29514091D01*
X47549444Y-29514835D01*
X47602127Y-29520500D01*
X49897872Y-29520499D01*
X49957483Y-29514091D01*
X50092331Y-29463796D01*
X50207546Y-29377546D01*
X50293796Y-29262331D01*
X50344091Y-29127483D01*
X50350500Y-29067873D01*
X50350499Y-26772128D01*
X50344091Y-26712517D01*
X50294508Y-26579579D01*
X50293797Y-26577671D01*
X50293793Y-26577664D01*
X50207547Y-26462455D01*
X50207544Y-26462452D01*
X50092335Y-26376206D01*
X50092328Y-26376202D01*
X49957482Y-26325908D01*
X49957483Y-26325908D01*
X49897883Y-26319501D01*
X49897881Y-26319500D01*
X49897873Y-26319500D01*
X49897864Y-26319500D01*
X47602129Y-26319500D01*
X47602123Y-26319501D01*
X47542516Y-26325908D01*
X47407671Y-26376202D01*
X47407664Y-26376206D01*
X47292455Y-26462452D01*
X47292452Y-26462455D01*
X47206206Y-26577664D01*
X47206202Y-26577671D01*
X47155908Y-26712517D01*
X47149501Y-26772116D01*
X47149501Y-26772123D01*
X47149500Y-26772135D01*
X26301924Y-26772135D01*
X26521405Y-26529975D01*
X26529975Y-26521405D01*
X26775433Y-26298935D01*
X26784818Y-26291232D01*
X27050905Y-26093888D01*
X27060998Y-26087145D01*
X27345136Y-25916840D01*
X27355828Y-25911124D01*
X27655318Y-25769476D01*
X27666525Y-25764835D01*
X27978412Y-25653239D01*
X27990043Y-25649710D01*
X28311385Y-25569218D01*
X28323296Y-25566849D01*
X28650962Y-25518244D01*
X28663068Y-25517052D01*
X28996967Y-25500648D01*
X29003051Y-25500500D01*
X53876000Y-25500500D01*
X53943039Y-25520185D01*
G37*
G04 #@! TD.AperFunction*
M02*
