M48
; DRILL file {KiCad 8.0.2-8.0.2-0~ubuntu22.04.1} date 2024-05-09T21:57:50-0700
; FORMAT={-:-/ absolute / metric / decimal}
; #@! TF.CreationDate,2024-05-09T21:57:50-07:00
; #@! TF.GenerationSoftware,Kicad,Pcbnew,8.0.2-8.0.2-0~ubuntu22.04.1
; #@! TF.FileFunction,Plated,1,2,PTH
FMAT,2
METRIC
; #@! TA.AperFunction,Plated,PTH,ComponentDrill
T1C0.750
; #@! TA.AperFunction,Plated,PTH,ComponentDrill
T2C0.800
; #@! TA.AperFunction,Plated,PTH,ComponentDrill
T3C0.950
; #@! TA.AperFunction,Plated,PTH,ComponentDrill
T4C1.000
; #@! TA.AperFunction,Plated,PTH,ComponentDrill
T5C1.100
; #@! TA.AperFunction,Plated,PTH,ComponentDrill
T6C1.520
%
G90
G05
T1
X42.332Y-33.96
X42.332Y-35.23
X42.332Y-36.5
X42.332Y-44.75
X42.332Y-46.02
X42.332Y-47.29
X42.332Y-54.96
X42.332Y-56.23
X42.332Y-57.5
X42.332Y-65.312
X42.332Y-66.582
X42.332Y-67.852
T2
X35.75Y-30.19
X35.75Y-37.81
X35.75Y-40.69
X35.75Y-48.31
X35.75Y-51.38
X35.75Y-59.0
X35.75Y-61.272
X35.75Y-68.892
X38.44Y-30.75
X38.44Y-41.25
X38.44Y-51.75
X38.44Y-61.832
X46.06Y-30.75
X46.06Y-41.25
X46.06Y-51.75
X46.06Y-61.832
T3
X28.0Y-41.25
X28.0Y-43.75
X28.0Y-46.25
X28.0Y-48.75
X28.0Y-51.25
X28.0Y-53.75
T4
X58.96Y-27.74
X64.04Y-27.75
X76.74Y-57.58
X76.75Y-42.25
X76.75Y-52.5
X76.76Y-37.17
T5
X48.75Y-27.92
X48.75Y-38.08
X48.75Y-41.17
X48.75Y-51.33
X48.75Y-59.17
X48.75Y-69.33
X51.917Y-31.967
X51.917Y-36.667
X52.0Y-41.3
X52.0Y-46.0
X52.0Y-54.3
X52.0Y-59.0
X52.0Y-64.05
X52.0Y-68.75
X52.17Y-50.25
X62.33Y-50.25
X63.417Y-36.667
X63.5Y-46.0
X63.5Y-59.0
X63.5Y-68.75
X70.417Y-36.667
X70.5Y-46.0
X70.5Y-59.0
X70.5Y-68.75
T6
X86.0Y-40.26
X86.0Y-45.34
X86.0Y-50.42
X86.0Y-55.5
M30
